<svg xmlns="http://www.w3.org/2000/svg" xmlns:xlink="http://www.w3.org/1999/xlink" version="1.1" viewBox="8.81 31.15 92.08 31.07">
<g id="surface1">
<path style=" stroke:none;fill-rule:nonzero;fill:rgb(0%,0%,0%);fill-opacity:1;" d="M 49.691406 52.886719 L 49.691406 50.164063 L 49.050781 50.164063 L 49.050781 49.714844 L 49.691406 49.714844 L 49.691406 48.796875 C 49.691406 48.269531 49.757813 47.914063 49.898438 47.726563 C 50.035156 47.542969 50.285156 47.449219 50.644531 47.449219 C 50.734375 47.449219 50.816406 47.453125 50.898438 47.464844 C 50.980469 47.476563 51.058594 47.496094 51.132813 47.523438 L 51.132813 48.082031 C 51.058594 48.042969 50.988281 48.015625 50.914063 47.996094 C 50.839844 47.980469 50.765625 47.96875 50.6875 47.96875 C 50.523438 47.96875 50.40625 48.019531 50.34375 48.121094 C 50.28125 48.222656 50.25 48.472656 50.25 48.871094 L 50.25 49.714844 L 51.132813 49.714844 L 51.132813 50.164063 L 50.265625 50.164063 L 50.265625 52.886719 Z M 49.691406 52.886719 "/>
<path style=" stroke:none;fill-rule:nonzero;fill:rgb(0%,0%,0%);fill-opacity:1;" d="M 53.230469 49.714844 L 53.800781 49.714844 L 53.800781 52.886719 L 53.230469 52.886719 Z M 53.097656 48.1875 C 53.097656 48.078125 53.136719 47.984375 53.21875 47.910156 C 53.296875 47.832031 53.394531 47.792969 53.511719 47.792969 C 53.625 47.792969 53.722656 47.832031 53.804688 47.910156 C 53.882813 47.988281 53.925781 48.082031 53.925781 48.195313 C 53.925781 48.304688 53.886719 48.394531 53.804688 48.472656 C 53.726563 48.546875 53.628906 48.585938 53.511719 48.585938 C 53.394531 48.585938 53.296875 48.546875 53.21875 48.472656 C 53.136719 48.394531 53.097656 48.300781 53.097656 48.1875 "/>
<path style=" stroke:none;fill-rule:nonzero;fill:rgb(0%,0%,0%);fill-opacity:1;" d="M 56.160156 52.351563 L 56.644531 52.042969 C 56.738281 52.210938 56.855469 52.335938 56.992188 52.421875 C 57.132813 52.503906 57.300781 52.546875 57.488281 52.546875 C 57.675781 52.546875 57.824219 52.503906 57.941406 52.414063 C 58.054688 52.328125 58.113281 52.210938 58.113281 52.070313 C 58.113281 51.957031 58.074219 51.867188 57.996094 51.792969 C 57.917969 51.71875 57.78125 51.648438 57.589844 51.585938 C 57.570313 51.582031 57.539063 51.570313 57.496094 51.554688 C 56.691406 51.289063 56.289063 50.957031 56.289063 50.558594 C 56.289063 50.277344 56.398438 50.046875 56.613281 49.867188 C 56.832031 49.691406 57.113281 49.601563 57.460938 49.601563 C 57.75 49.601563 57.996094 49.65625 58.199219 49.765625 C 58.402344 49.875 58.550781 50.03125 58.640625 50.230469 L 58.179688 50.503906 C 58.113281 50.359375 58.015625 50.246094 57.882813 50.167969 C 57.75 50.085938 57.597656 50.046875 57.425781 50.046875 C 57.257813 50.046875 57.121094 50.09375 57.015625 50.183594 C 56.914063 50.269531 56.859375 50.382813 56.859375 50.523438 C 56.859375 50.71875 57.082031 50.878906 57.519531 51.011719 C 57.601563 51.039063 57.667969 51.058594 57.714844 51.070313 C 58.074219 51.183594 58.324219 51.308594 58.464844 51.449219 C 58.605469 51.59375 58.675781 51.78125 58.675781 52.011719 C 58.675781 52.316406 58.566406 52.558594 58.339844 52.742188 C 58.117188 52.929688 57.828125 53.023438 57.46875 53.023438 C 57.160156 53.023438 56.894531 52.96875 56.683594 52.855469 C 56.464844 52.746094 56.292969 52.578125 56.160156 52.351563 "/>
<path style=" stroke:none;fill-rule:nonzero;fill:rgb(0%,0%,0%);fill-opacity:1;" d="M 61.078125 49.714844 L 61.648438 49.714844 L 61.648438 52.886719 L 61.078125 52.886719 Z M 60.941406 48.1875 C 60.941406 48.078125 60.984375 47.984375 61.0625 47.910156 C 61.144531 47.832031 61.242188 47.792969 61.359375 47.792969 C 61.472656 47.792969 61.570313 47.832031 61.648438 47.910156 C 61.730469 47.988281 61.773438 48.082031 61.773438 48.195313 C 61.773438 48.304688 61.730469 48.394531 61.652344 48.472656 C 61.574219 48.546875 61.476563 48.585938 61.359375 48.585938 C 61.242188 48.585938 61.144531 48.546875 61.0625 48.472656 C 60.984375 48.394531 60.941406 48.300781 60.941406 48.1875 "/>
<path style=" stroke:none;fill-rule:nonzero;fill:rgb(0%,0%,0%);fill-opacity:1;" d="M 64.695313 51.308594 C 64.695313 51.644531 64.8125 51.929688 65.042969 52.160156 C 65.28125 52.394531 65.5625 52.507813 65.894531 52.507813 C 66.222656 52.507813 66.507813 52.394531 66.738281 52.160156 C 66.96875 51.929688 67.085938 51.644531 67.085938 51.308594 C 67.085938 50.976563 66.96875 50.691406 66.738281 50.460938 C 66.507813 50.226563 66.222656 50.109375 65.894531 50.109375 C 65.558594 50.109375 65.273438 50.226563 65.042969 50.460938 C 64.808594 50.691406 64.695313 50.976563 64.695313 51.308594 M 64.09375 51.308594 C 64.09375 51.078125 64.140625 50.855469 64.226563 50.648438 C 64.316406 50.445313 64.445313 50.257813 64.617188 50.097656 C 64.789063 49.933594 64.984375 49.8125 65.199219 49.726563 C 65.417969 49.644531 65.648438 49.601563 65.894531 49.601563 C 66.136719 49.601563 66.363281 49.644531 66.582031 49.730469 C 66.796875 49.816406 66.992188 49.941406 67.167969 50.101563 C 67.339844 50.261719 67.46875 50.445313 67.558594 50.652344 C 67.648438 50.859375 67.691406 51.078125 67.691406 51.308594 C 67.691406 51.542969 67.648438 51.757813 67.558594 51.964844 C 67.46875 52.167969 67.339844 52.351563 67.167969 52.507813 C 66.992188 52.675781 66.796875 52.800781 66.578125 52.890625 C 66.359375 52.976563 66.132813 53.023438 65.894531 53.023438 C 65.652344 53.023438 65.421875 52.980469 65.203125 52.890625 C 64.984375 52.804688 64.789063 52.679688 64.617188 52.519531 C 64.445313 52.351563 64.316406 52.167969 64.226563 51.964844 C 64.140625 51.761719 64.09375 51.542969 64.09375 51.308594 "/>
<path style=" stroke:none;fill-rule:nonzero;fill:rgb(0%,0%,0%);fill-opacity:1;" d="M 70.179688 50.164063 L 69.570313 50.164063 L 69.570313 49.714844 L 70.179688 49.714844 L 70.179688 48.4375 L 70.757813 48.4375 L 70.757813 49.714844 L 71.367188 49.714844 L 71.367188 50.164063 L 70.757813 50.164063 L 70.757813 52.886719 L 70.179688 52.886719 Z M 70.179688 50.164063 "/>
<path style=" stroke:none;fill-rule:nonzero;fill:rgb(0%,0%,0%);fill-opacity:1;" d="M 75.875 50.941406 C 75.859375 50.664063 75.761719 50.449219 75.585938 50.296875 C 75.410156 50.144531 75.171875 50.070313 74.867188 50.070313 C 74.59375 50.070313 74.363281 50.148438 74.179688 50.308594 C 73.996094 50.464844 73.890625 50.675781 73.863281 50.941406 Z M 76.484375 51.382813 L 73.863281 51.382813 L 73.863281 51.433594 C 73.863281 51.773438 73.964844 52.046875 74.164063 52.253906 C 74.367188 52.464844 74.632813 52.566406 74.957031 52.566406 C 75.179688 52.566406 75.378906 52.511719 75.558594 52.398438 C 75.738281 52.28125 75.894531 52.109375 76.03125 51.878906 L 76.464844 52.15625 C 76.296875 52.441406 76.085938 52.660156 75.828125 52.804688 C 75.566406 52.949219 75.269531 53.023438 74.929688 53.023438 C 74.425781 53.023438 74.019531 52.863281 73.707031 52.542969 C 73.394531 52.226563 73.238281 51.808594 73.238281 51.289063 C 73.238281 50.792969 73.394531 50.386719 73.703125 50.070313 C 74.011719 49.753906 74.40625 49.59375 74.894531 49.59375 C 75.382813 49.59375 75.769531 49.746094 76.054688 50.046875 C 76.339844 50.347656 76.484375 50.757813 76.484375 51.277344 Z M 76.484375 51.382813 "/>
<path style=" stroke:none;fill-rule:nonzero;fill:rgb(0%,0%,0%);fill-opacity:1;" d="M 78.863281 52.886719 L 78.863281 49.714844 L 79.367188 49.714844 L 79.367188 50.375 C 79.519531 50.101563 79.679688 49.902344 79.851563 49.785156 C 80.023438 49.667969 80.230469 49.609375 80.476563 49.609375 C 80.546875 49.609375 80.609375 49.613281 80.671875 49.625 C 80.738281 49.632813 80.796875 49.652344 80.859375 49.671875 L 80.671875 50.160156 C 80.609375 50.140625 80.546875 50.121094 80.488281 50.113281 C 80.429688 50.101563 80.375 50.097656 80.320313 50.097656 C 80.023438 50.097656 79.796875 50.199219 79.648438 50.40625 C 79.5 50.613281 79.421875 50.925781 79.421875 51.339844 L 79.421875 52.886719 Z M 78.863281 52.886719 "/>
<path style=" stroke:none;fill-rule:nonzero;fill:rgb(0%,0%,0%);fill-opacity:1;" d="M 85.507813 51.332031 C 85.507813 50.972656 85.40625 50.683594 85.203125 50.464844 C 84.996094 50.25 84.734375 50.140625 84.40625 50.140625 C 84.066406 50.140625 83.800781 50.238281 83.609375 50.441406 C 83.417969 50.640625 83.324219 50.921875 83.324219 51.28125 C 83.324219 51.667969 83.417969 51.960938 83.613281 52.171875 C 83.800781 52.378906 84.074219 52.480469 84.425781 52.480469 C 84.765625 52.480469 85.027344 52.382813 85.222656 52.179688 C 85.414063 51.976563 85.507813 51.695313 85.507813 51.332031 M 86.058594 49.714844 L 86.058594 52.886719 L 85.507813 52.886719 L 85.507813 52.3125 C 85.375 52.542969 85.207031 52.71875 85 52.839844 C 84.792969 52.960938 84.5625 53.023438 84.308594 53.023438 C 83.832031 53.023438 83.449219 52.867188 83.15625 52.554688 C 82.867188 52.238281 82.722656 51.824219 82.722656 51.308594 C 82.722656 50.789063 82.863281 50.375 83.144531 50.0625 C 83.429688 49.753906 83.804688 49.601563 84.277344 49.601563 C 84.554688 49.601563 84.796875 49.660156 85 49.78125 C 85.203125 49.898438 85.367188 50.078125 85.492188 50.3125 L 85.492188 49.714844 Z M 86.058594 49.714844 "/>
<path style=" stroke:none;fill-rule:nonzero;fill:rgb(0%,0%,0%);fill-opacity:1;" d="M 89.253906 51.308594 C 89.253906 51.664063 89.355469 51.953125 89.5625 52.164063 C 89.765625 52.382813 90.039063 52.488281 90.375 52.488281 C 90.707031 52.488281 90.964844 52.390625 91.15625 52.195313 C 91.34375 51.996094 91.4375 51.726563 91.4375 51.375 C 91.4375 50.984375 91.34375 50.679688 91.15625 50.457031 C 90.964844 50.234375 90.703125 50.125 90.367188 50.125 C 90.019531 50.125 89.75 50.230469 89.550781 50.441406 C 89.351563 50.652344 89.253906 50.941406 89.253906 51.308594 M 88.710938 54.433594 L 88.710938 49.714844 L 89.25 49.714844 L 89.25 50.3125 C 89.375 50.082031 89.542969 49.90625 89.753906 49.785156 C 89.964844 49.664063 90.199219 49.601563 90.457031 49.601563 C 90.933594 49.601563 91.316406 49.757813 91.605469 50.070313 C 91.894531 50.382813 92.039063 50.792969 92.039063 51.308594 C 92.039063 51.835938 91.898438 52.25 91.613281 52.558594 C 91.332031 52.867188 90.953125 53.023438 90.476563 53.023438 C 90.203125 53.023438 89.964844 52.960938 89.765625 52.84375 C 89.5625 52.722656 89.394531 52.546875 89.269531 52.3125 L 89.269531 54.433594 Z M 88.710938 54.433594 "/>
<path style=" stroke:none;fill-rule:nonzero;fill:rgb(0%,0%,0%);fill-opacity:1;" d="M 94.492188 49.714844 L 95.0625 49.714844 L 95.0625 52.886719 L 94.492188 52.886719 Z M 94.359375 48.1875 C 94.359375 48.078125 94.398438 47.984375 94.480469 47.910156 C 94.558594 47.832031 94.65625 47.792969 94.773438 47.792969 C 94.886719 47.792969 94.984375 47.832031 95.066406 47.910156 C 95.144531 47.988281 95.1875 48.082031 95.1875 48.195313 C 95.1875 48.304688 95.148438 48.394531 95.066406 48.472656 C 94.988281 48.546875 94.890625 48.585938 94.773438 48.585938 C 94.65625 48.585938 94.558594 48.546875 94.480469 48.472656 C 94.398438 48.394531 94.359375 48.300781 94.359375 48.1875 "/>
<path style=" stroke:none;fill-rule:nonzero;fill:rgb(0%,0%,0%);fill-opacity:1;" d="M 100.308594 51.332031 C 100.308594 50.972656 100.207031 50.683594 100 50.464844 C 99.796875 50.25 99.53125 50.140625 99.203125 50.140625 C 98.863281 50.140625 98.597656 50.238281 98.410156 50.441406 C 98.21875 50.640625 98.121094 50.921875 98.121094 51.28125 C 98.121094 51.667969 98.21875 51.960938 98.410156 52.171875 C 98.601563 52.378906 98.875 52.480469 99.226563 52.480469 C 99.5625 52.480469 99.828125 52.382813 100.019531 52.179688 C 100.210938 51.976563 100.308594 51.695313 100.308594 51.332031 M 100.859375 49.714844 L 100.859375 52.886719 L 100.308594 52.886719 L 100.308594 52.3125 C 100.175781 52.542969 100.003906 52.71875 99.800781 52.839844 C 99.59375 52.960938 99.363281 53.023438 99.105469 53.023438 C 98.632813 53.023438 98.25 52.867188 97.957031 52.554688 C 97.667969 52.238281 97.523438 51.824219 97.523438 51.308594 C 97.523438 50.789063 97.664063 50.375 97.945313 50.0625 C 98.226563 49.753906 98.605469 49.601563 99.078125 49.601563 C 99.355469 49.601563 99.59375 49.660156 99.800781 49.78125 C 100.003906 49.898438 100.167969 50.078125 100.292969 50.3125 L 100.292969 49.714844 Z M 100.859375 49.714844 "/>
<path style=" stroke:none;fill-rule:nonzero;fill:rgb(100%,50.19989%,0%);fill-opacity:1;" d="M 18.621094 36.566406 C 18.621094 36.566406 18.816406 36.464844 19.175781 36.28125 C 19.351563 36.175781 19.585938 36.089844 19.863281 35.988281 C 20.136719 35.875 20.460938 35.765625 20.832031 35.675781 C 21.5625 35.460938 22.472656 35.304688 23.523438 35.15625 C 24.574219 35.019531 25.769531 34.914063 27.074219 34.910156 C 28.378906 34.894531 29.796875 34.929688 31.289063 35.078125 C 32.039063 35.15625 32.808594 35.257813 33.59375 35.410156 C 33.992188 35.507813 34.371094 35.574219 34.8125 35.742188 C 35.03125 35.816406 35.242188 35.894531 35.40625 35.992188 L 35.675781 36.128906 C 35.855469 36.253906 35.894531 36.300781 36.007813 36.394531 C 36.785156 37.089844 36.988281 38.085938 37.0625 38.957031 C 37.128906 39.855469 37.039063 40.738281 36.878906 41.605469 C 36.710938 42.472656 36.472656 43.328125 36.140625 44.171875 C 35.800781 45.058594 35.277344 45.773438 34.757813 46.519531 C 33.652344 47.949219 32.261719 49.128906 30.710938 49.996094 C 30.328125 50.222656 29.902344 50.378906 29.503906 50.570313 C 29.085938 50.742188 28.609375 50.847656 28.167969 50.976563 L 27.546875 51.046875 L 27.238281 51.078125 L 27.164063 51.085938 C 27.03125 51.097656 27.078125 51.082031 27.027344 51.082031 L 26.855469 51.0625 C 26.402344 51.007813 25.941406 50.972656 25.539063 50.804688 C 23.875 50.269531 22.574219 49.25 21.457031 48.222656 C 20.347656 47.175781 19.476563 46.007813 18.773438 44.910156 C 18.089844 43.777344 17.628906 42.605469 17.515625 41.523438 C 17.386719 40.445313 17.488281 39.5 17.695313 38.757813 C 17.8125 38.390625 17.902344 38.0625 18.007813 37.789063 C 18.140625 37.523438 18.253906 37.300781 18.34375 37.121094 C 18.527344 36.757813 18.621094 36.566406 18.621094 36.566406 M 18.621094 36.566406 C 18.621094 36.566406 18.546875 36.769531 18.398438 37.144531 C 18.328125 37.335938 18.238281 37.566406 18.132813 37.839844 C 18.070313 38.125 17.996094 38.449219 17.914063 38.8125 C 17.769531 39.535156 17.738281 40.453125 17.933594 41.449219 C 18.117188 42.457031 18.632813 43.507813 19.316406 44.5625 C 20.058594 45.605469 20.925781 46.664063 22.019531 47.605469 C 23.113281 48.535156 24.402344 49.402344 25.828125 49.851563 C 26.183594 50 26.542969 50.003906 26.90625 50.050781 L 27.039063 50.066406 C 27.039063 50.070313 27.136719 50.074219 27.058594 50.074219 L 27.132813 50.066406 L 27.441406 50.03125 L 28.058594 49.953125 C 28.40625 49.824219 28.753906 49.746094 29.109375 49.597656 C 29.464844 49.414063 29.839844 49.273438 30.1875 49.0625 C 31.585938 48.257813 32.863281 47.136719 33.847656 45.820313 C 34.316406 45.160156 34.835938 44.46875 35.113281 43.75 C 35.425781 42.996094 35.660156 42.199219 35.824219 41.398438 C 35.988281 40.601563 36.078125 39.796875 36.03125 39.03125 C 35.984375 38.277344 35.796875 37.527344 35.335938 37.128906 C 35.296875 37.089844 35.183594 37.003906 35.207031 37 L 34.9375 36.859375 C 34.757813 36.75 34.59375 36.695313 34.433594 36.644531 C 34.132813 36.523438 33.738281 36.4375 33.386719 36.332031 C 32.648438 36.152344 31.914063 36.019531 31.1875 35.910156 C 29.742188 35.699219 28.351563 35.601563 27.066406 35.558594 C 25.785156 35.515625 24.605469 35.53125 23.5625 35.582031 C 22.523438 35.648438 21.613281 35.738281 20.882813 35.894531 C 20.511719 35.957031 20.1875 36.035156 19.90625 36.117188 C 19.625 36.191406 19.382813 36.25 19.199219 36.335938 C 18.824219 36.488281 18.621094 36.566406 18.621094 36.566406 "/>
<path style="fill:none;stroke-width:0.096;stroke-linecap:butt;stroke-linejoin:miter;stroke:rgb(12.89978%,9.799194%,8.198547%);stroke-opacity:1;stroke-miterlimit:10;" d="M -0.00095 0.00053125 C -1.079075 0.26225 -4.051731 2.164594 -5.008762 3.566938 C -6.008762 5.01225 -2.633762 -3.089312 -2.165012 -3.858844 C -1.461887 -5.011187 -0.540012 -5.933062 1.116238 -5.933062 C 4.721706 -5.933062 7.213894 -3.093219 9.87405 -3.077594 C 12.7178 -3.093219 14.354519 -5.933062 18.221706 -5.933062 C 20.452175 -5.933062 21.62405 -4.397906 22.24905 -3.124469 C 22.956081 -1.909625 25.31155 4.57475 24.690456 3.566938 C 23.198269 1.309125 20.057644 0.00053125 20.057644 0.00053125 C 20.057644 0.00053125 19.733425 -3.979937 17.831081 -3.979937 C 16.057644 -3.979937 14.694363 -2.503375 15.432644 -0.917437 C 13.260769 -2.026812 6.022488 -2.058062 3.99905 -0.917437 C 4.948269 -2.573687 4.413113 -3.897906 2.295925 -3.979937 C -0.00095 -3.729937 0.276394 -0.819781 -0.00095 0.00053125 Z M -0.00095 0.00053125 " transform="matrix(1,0,0,-1,17.2822,54.981)"/>
<path style=" stroke:none;fill-rule:nonzero;fill:rgb(12.89978%,9.799194%,8.198547%);fill-opacity:1;" d="M 17.726563 34.441406 C 17.226563 35.515625 16.757813 36.609375 16.386719 37.734375 C 16.203125 38.300781 16.054688 38.871094 15.921875 39.445313 C 15.8125 40.027344 15.71875 40.609375 15.691406 41.195313 C 15.632813 42.371094 15.8125 43.550781 16.257813 44.636719 C 16.695313 45.722656 17.300781 46.753906 18.0625 47.640625 C 18.441406 48.085938 18.847656 48.511719 19.28125 48.914063 C 19.703125 49.324219 20.160156 49.703125 20.617188 50.074219 C 21.535156 50.816406 22.5 51.5 23.5 52.128906 C 24.5 52.753906 25.53125 53.339844 26.605469 53.820313 C 27.675781 54.300781 28.792969 54.722656 29.9375 54.875 L 30.921875 55.007813 L 29.96875 55.246094 C 29.171875 55.445313 28.375 55.632813 27.5625 55.730469 C 26.75 55.832031 25.929688 55.894531 25.113281 55.875 C 24.703125 55.886719 24.296875 55.859375 23.886719 55.824219 C 23.480469 55.800781 23.074219 55.757813 22.671875 55.691406 C 22.265625 55.636719 21.863281 55.570313 21.464844 55.476563 C 21.0625 55.402344 20.664063 55.308594 20.273438 55.191406 C 19.484375 54.988281 18.710938 54.71875 17.953125 54.410156 C 17.195313 54.113281 16.464844 53.746094 15.746094 53.359375 C 14.347656 52.542969 12.9375 51.617188 11.984375 50.253906 C 11.519531 49.578125 11.105469 48.871094 10.769531 48.128906 C 10.59375 47.761719 10.425781 47.386719 10.285156 47.003906 C 10.128906 46.628906 9.992188 46.246094 9.875 45.855469 C 9.613281 45.085938 9.417969 44.292969 9.257813 43.496094 C 9.085938 42.699219 8.988281 41.890625 8.894531 41.082031 C 8.835938 40.269531 8.789063 39.457031 8.8125 38.644531 C 8.8125 37.832031 8.890625 37.019531 8.976563 36.210938 C 9.085938 35.40625 9.210938 34.605469 9.410156 33.816406 C 9.558594 33.015625 9.855469 32.253906 10.074219 31.472656 L 10.078125 31.445313 L 10.109375 31.4375 C 10.816406 31.234375 11.550781 31.128906 12.285156 31.148438 C 13.023438 31.171875 13.75 31.328125 14.429688 31.609375 C 15.785156 32.183594 16.933594 33.195313 17.726563 34.421875 L 17.734375 34.429688 Z M 17.6875 34.433594 C 16.890625 33.226563 15.742188 32.230469 14.402344 31.679688 C 13.054688 31.117188 11.523438 31.121094 10.140625 31.542969 L 10.175781 31.507813 C 9.964844 32.285156 9.675781 33.046875 9.535156 33.84375 C 9.34375 34.628906 9.226563 35.429688 9.125 36.230469 C 9.042969 37.03125 8.972656 37.839844 8.980469 38.648438 C 8.964844 39.453125 9.019531 40.257813 9.085938 41.0625 C 9.179688 41.863281 9.28125 42.664063 9.457031 43.453125 C 9.621094 44.242188 9.820313 45.027344 10.082031 45.789063 C 10.203125 46.171875 10.339844 46.550781 10.496094 46.921875 C 10.636719 47.300781 10.804688 47.667969 10.980469 48.027344 C 11.316406 48.757813 11.730469 49.453125 12.1875 50.109375 C 13.109375 51.417969 14.5 52.324219 15.882813 53.117188 C 16.589844 53.496094 17.3125 53.851563 18.0625 54.140625 C 18.808594 54.441406 19.574219 54.703125 20.351563 54.898438 C 20.738281 55.007813 21.132813 55.097656 21.527344 55.167969 C 21.917969 55.257813 22.316406 55.320313 22.714844 55.367188 C 23.113281 55.429688 23.511719 55.472656 23.914063 55.492188 C 24.3125 55.523438 24.714844 55.546875 25.113281 55.535156 C 25.917969 55.546875 26.71875 55.480469 27.511719 55.375 C 28.308594 55.273438 29.085938 55.082031 29.863281 54.882813 L 29.894531 55.25 C 28.675781 55.089844 27.542969 54.65625 26.449219 54.167969 C 25.351563 53.675781 24.308594 53.085938 23.296875 52.453125 C 22.285156 51.8125 21.300781 51.128906 20.382813 50.359375 C 19.925781 49.972656 19.46875 49.585938 19.042969 49.160156 C 18.609375 48.75 18.203125 48.304688 17.816406 47.84375 C 17.046875 46.914063 16.445313 45.855469 16.011719 44.734375 C 15.570313 43.609375 15.398438 42.382813 15.480469 41.183594 C 15.515625 40.585938 15.617188 39.992188 15.742188 39.40625 C 15.878906 38.824219 16.054688 38.253906 16.253906 37.691406 C 16.65625 36.570313 17.15625 35.492188 17.6875 34.433594 "/>
<path style=" stroke:none;fill-rule:nonzero;fill:rgb(12.89978%,9.799194%,8.198547%);fill-opacity:1;" d="M 36.183594 34.433594 C 36.484375 34.929688 36.824219 35.40625 37.058594 35.941406 C 37.339844 36.460938 37.527344 37.019531 37.738281 37.570313 C 37.894531 38.136719 38.066406 38.703125 38.148438 39.289063 C 38.257813 39.867188 38.300781 40.460938 38.324219 41.046875 C 38.347656 41.640625 38.3125 42.226563 38.273438 42.816406 C 38.203125 43.402344 38.121094 43.988281 37.988281 44.566406 C 37.730469 45.71875 37.335938 46.84375 36.789063 47.894531 C 36.523438 48.429688 36.1875 48.933594 35.84375 49.398438 C 35.445313 49.871094 35.019531 50.296875 34.511719 50.625 C 33.515625 51.3125 32.355469 51.683594 31.203125 51.945313 C 28.875 52.4375 26.5 52.4375 24.15625 52.351563 L 24.273438 52.007813 L 25.238281 52.535156 C 25.5625 52.707031 25.878906 52.894531 26.210938 53.054688 L 28.246094 53.941406 L 28.234375 53.9375 C 28.921875 54.144531 29.621094 54.300781 30.332031 54.382813 L 31.398438 54.476563 C 31.757813 54.488281 32.121094 54.476563 32.484375 54.476563 C 33.210938 54.484375 33.917969 54.4375 34.640625 54.355469 C 35.355469 54.273438 36.066406 54.160156 36.746094 53.9375 C 38.125 53.523438 39.339844 52.742188 40.417969 51.777344 C 40.996094 51.335938 41.421875 50.765625 41.839844 50.183594 C 42.238281 49.582031 42.59375 48.957031 42.914063 48.308594 C 43.234375 47.664063 43.507813 46.992188 43.769531 46.320313 C 44.003906 45.636719 44.242188 44.957031 44.417969 44.253906 C 44.621094 43.558594 44.742188 42.84375 44.878906 42.136719 C 44.984375 41.421875 45.089844 40.707031 45.121094 39.980469 C 45.199219 39.261719 45.152344 38.539063 45.160156 37.816406 C 45.082031 37.097656 45.078125 36.367188 44.921875 35.660156 C 44.855469 35.304688 44.800781 34.949219 44.726563 34.59375 L 44.4375 33.550781 C 44.269531 32.84375 43.941406 32.191406 43.699219 31.511719 L 43.734375 31.542969 C 43.378906 31.46875 43.03125 31.355469 42.671875 31.3125 L 42.128906 31.257813 C 41.953125 31.226563 41.769531 31.253906 41.589844 31.25 C 41.40625 31.261719 41.226563 31.246094 41.046875 31.28125 L 40.507813 31.363281 C 40.160156 31.457031 39.804688 31.535156 39.472656 31.6875 C 39.304688 31.753906 39.136719 31.820313 38.976563 31.910156 C 38.820313 32 38.652344 32.070313 38.503906 32.175781 C 38.191406 32.367188 37.902344 32.582031 37.621094 32.816406 C 37.074219 33.285156 36.578125 33.824219 36.183594 34.433594 M 36.144531 34.421875 C 36.539063 33.804688 37.035156 33.253906 37.585938 32.773438 C 37.863281 32.535156 38.15625 32.316406 38.46875 32.121094 C 38.617188 32.011719 38.789063 31.941406 38.945313 31.847656 C 39.105469 31.757813 39.273438 31.6875 39.445313 31.617188 C 39.777344 31.464844 40.140625 31.382813 40.492188 31.285156 L 41.035156 31.195313 C 41.21875 31.15625 41.402344 31.171875 41.585938 31.160156 C 41.769531 31.160156 41.953125 31.132813 42.136719 31.160156 L 42.683594 31.214844 C 43.050781 31.253906 43.402344 31.363281 43.761719 31.4375 L 43.789063 31.441406 L 43.796875 31.464844 C 44.046875 32.148438 44.382813 32.804688 44.558594 33.511719 L 44.859375 34.5625 C 44.9375 34.917969 44.996094 35.28125 45.0625 35.636719 C 45.226563 36.351563 45.234375 37.085938 45.320313 37.808594 C 45.316406 38.535156 45.371094 39.265625 45.300781 39.992188 C 45.273438 40.722656 45.175781 41.445313 45.070313 42.167969 C 44.9375 42.882813 44.820313 43.605469 44.617188 44.304688 C 44.445313 45.015625 44.210938 45.707031 43.980469 46.398438 C 43.714844 47.078125 43.445313 47.757813 43.125 48.410156 C 42.804688 49.070313 42.445313 49.707031 42.042969 50.320313 C 41.628906 50.914063 41.171875 51.523438 40.589844 51.972656 C 39.519531 52.945313 38.242188 53.785156 36.832031 54.210938 C 36.132813 54.445313 35.398438 54.5625 34.675781 54.652344 C 33.957031 54.742188 33.210938 54.792969 32.488281 54.789063 C 32.125 54.792969 31.761719 54.808594 31.398438 54.800781 L 30.292969 54.714844 C 29.558594 54.636719 28.835938 54.476563 28.132813 54.269531 L 28.125 54.269531 L 28.121094 54.265625 L 26.054688 53.386719 C 25.714844 53.226563 25.386719 53.035156 25.054688 52.859375 L 24.058594 52.320313 L 23.367188 51.945313 L 24.171875 51.972656 C 26.5 52.058594 28.855469 52.054688 31.121094 51.570313 C 31.683594 51.445313 32.246094 51.300781 32.777344 51.085938 C 33.316406 50.886719 33.832031 50.636719 34.308594 50.324219 C 34.792969 50.023438 35.207031 49.617188 35.570313 49.203125 C 35.929688 48.730469 36.25 48.261719 36.515625 47.75 C 37.0625 46.734375 37.464844 45.636719 37.734375 44.507813 C 37.875 43.941406 37.960938 43.367188 38.039063 42.792969 C 38.085938 42.214844 38.132813 41.636719 38.113281 41.054688 C 38.101563 40.472656 38.066406 39.890625 37.96875 39.316406 C 37.894531 38.738281 37.746094 38.175781 37.605469 37.613281 C 37.414063 37.0625 37.246094 36.503906 36.980469 35.980469 C 36.757813 35.4375 36.433594 34.949219 36.144531 34.441406 L 36.140625 34.429688 Z M 36.144531 34.421875 "/>
<path style=" stroke:none;fill-rule:nonzero;fill:rgb(100%,50.19989%,0%);fill-opacity:1;" d="M 49.589844 60.167969 L 50.054688 59.867188 C 50.140625 60.03125 50.253906 60.152344 50.386719 60.234375 C 50.523438 60.316406 50.679688 60.355469 50.863281 60.355469 C 51.039063 60.355469 51.1875 60.3125 51.296875 60.226563 C 51.40625 60.144531 51.460938 60.035156 51.460938 59.894531 C 51.460938 59.789063 51.421875 59.699219 51.347656 59.628906 C 51.273438 59.558594 51.144531 59.492188 50.960938 59.433594 C 50.941406 59.425781 50.910156 59.414063 50.871094 59.402344 C 50.097656 59.148438 49.707031 58.828125 49.707031 58.441406 C 49.707031 58.171875 49.8125 57.953125 50.023438 57.78125 C 50.230469 57.609375 50.5 57.523438 50.835938 57.523438 C 51.109375 57.523438 51.347656 57.578125 51.542969 57.683594 C 51.742188 57.789063 51.882813 57.9375 51.96875 58.128906 L 51.527344 58.390625 C 51.460938 58.25 51.367188 58.140625 51.238281 58.066406 C 51.113281 57.992188 50.96875 57.953125 50.800781 57.953125 C 50.640625 57.953125 50.511719 57.996094 50.410156 58.082031 C 50.308594 58.167969 50.257813 58.277344 50.257813 58.410156 C 50.257813 58.597656 50.46875 58.753906 50.890625 58.878906 C 50.96875 58.90625 51.03125 58.921875 51.078125 58.9375 C 51.421875 59.042969 51.664063 59.164063 51.800781 59.300781 C 51.933594 59.4375 52.003906 59.617188 52.003906 59.84375 C 52.003906 60.128906 51.894531 60.363281 51.679688 60.542969 C 51.464844 60.722656 51.1875 60.8125 50.84375 60.8125 C 50.546875 60.8125 50.292969 60.757813 50.085938 60.652344 C 49.878906 60.542969 49.710938 60.382813 49.589844 60.167969 "/>
<path style=" stroke:none;fill-rule:nonzero;fill:rgb(100%,50.19989%,0%);fill-opacity:1;" d="M 53.933594 57.632813 L 53.933594 59.132813 C 53.933594 59.570313 54 59.875 54.136719 60.050781 C 54.269531 60.226563 54.5 60.3125 54.820313 60.3125 C 55.144531 60.3125 55.371094 60.226563 55.503906 60.054688 C 55.636719 59.882813 55.703125 59.574219 55.703125 59.132813 L 55.703125 57.632813 L 56.261719 57.632813 L 56.261719 59.414063 C 56.261719 59.871094 56.136719 60.21875 55.890625 60.457031 C 55.644531 60.691406 55.285156 60.8125 54.808594 60.8125 C 54.335938 60.8125 53.976563 60.691406 53.730469 60.453125 C 53.484375 60.21875 53.363281 59.871094 53.363281 59.414063 L 53.363281 57.632813 Z M 53.933594 57.632813 "/>
<path style=" stroke:none;fill-rule:nonzero;fill:rgb(100%,50.19989%,0%);fill-opacity:1;" d="M 60.167969 58.8125 C 60.148438 58.542969 60.054688 58.335938 59.886719 58.191406 C 59.71875 58.046875 59.488281 57.972656 59.195313 57.972656 C 58.933594 57.972656 58.714844 58.050781 58.539063 58.203125 C 58.359375 58.355469 58.257813 58.558594 58.230469 58.8125 Z M 60.75 59.234375 L 58.230469 59.234375 L 58.230469 59.28125 C 58.230469 59.609375 58.328125 59.871094 58.523438 60.074219 C 58.71875 60.273438 58.96875 60.375 59.285156 60.375 C 59.496094 60.375 59.691406 60.320313 59.863281 60.210938 C 60.03125 60.101563 60.183594 59.933594 60.316406 59.710938 L 60.730469 59.980469 C 60.570313 60.253906 60.367188 60.460938 60.117188 60.601563 C 59.871094 60.742188 59.582031 60.8125 59.253906 60.8125 C 58.773438 60.8125 58.382813 60.65625 58.082031 60.351563 C 57.785156 60.046875 57.632813 59.644531 57.632813 59.144531 C 57.632813 58.667969 57.78125 58.277344 58.078125 57.972656 C 58.375 57.667969 58.753906 57.519531 59.222656 57.519531 C 59.691406 57.519531 60.0625 57.660156 60.339844 57.949219 C 60.613281 58.238281 60.75 58.632813 60.75 59.132813 Z M 60.75 59.234375 "/>
<path style=" stroke:none;fill-rule:nonzero;fill:rgb(100%,50.19989%,0%);fill-opacity:1;" d="M 62.195313 55.519531 L 62.753906 55.519531 L 62.753906 60.679688 L 62.195313 60.679688 Z M 62.195313 55.519531 "/>
<path style=" stroke:none;fill-rule:nonzero;fill:rgb(100%,50.19989%,0%);fill-opacity:1;" d="M 64.808594 59.164063 C 64.808594 59.488281 64.921875 59.761719 65.148438 59.984375 C 65.371094 60.207031 65.644531 60.316406 65.964844 60.316406 C 66.28125 60.316406 66.550781 60.207031 66.773438 59.984375 C 66.996094 59.761719 67.109375 59.488281 67.109375 59.164063 C 67.109375 58.84375 66.996094 58.570313 66.773438 58.347656 C 66.550781 58.125 66.28125 58.015625 65.964844 58.015625 C 65.644531 58.015625 65.371094 58.125 65.144531 58.347656 C 64.921875 58.570313 64.808594 58.84375 64.808594 59.164063 M 64.234375 59.164063 C 64.234375 58.941406 64.277344 58.730469 64.363281 58.53125 C 64.449219 58.332031 64.570313 58.15625 64.738281 58 C 64.902344 57.84375 65.089844 57.726563 65.296875 57.644531 C 65.507813 57.5625 65.726563 57.523438 65.964844 57.523438 C 66.195313 57.523438 66.417969 57.566406 66.621094 57.648438 C 66.832031 57.730469 67.019531 57.847656 67.1875 58.007813 C 67.351563 58.160156 67.476563 58.335938 67.5625 58.535156 C 67.648438 58.734375 67.691406 58.945313 67.691406 59.164063 C 67.691406 59.386719 67.648438 59.597656 67.5625 59.792969 C 67.476563 59.988281 67.351563 60.164063 67.1875 60.316406 C 67.019531 60.476563 66.828125 60.601563 66.617188 60.683594 C 66.410156 60.769531 66.191406 60.8125 65.964844 60.8125 C 65.730469 60.8125 65.507813 60.769531 65.296875 60.6875 C 65.089844 60.601563 64.902344 60.484375 64.738281 60.328125 C 64.570313 60.167969 64.449219 59.992188 64.363281 59.796875 C 64.277344 59.601563 64.234375 59.390625 64.234375 59.164063 "/>
<path style=" stroke:none;fill-rule:nonzero;fill:rgb(100%,50.19989%,0%);fill-opacity:1;" d="M 70.746094 59.097656 C 70.746094 59.453125 70.847656 59.738281 71.054688 59.953125 C 71.257813 60.167969 71.53125 60.273438 71.867188 60.273438 C 72.199219 60.273438 72.457031 60.175781 72.648438 59.980469 C 72.835938 59.78125 72.929688 59.511719 72.929688 59.164063 C 72.929688 58.769531 72.835938 58.464844 72.648438 58.242188 C 72.457031 58.023438 72.195313 57.910156 71.855469 57.910156 C 71.511719 57.910156 71.242188 58.015625 71.042969 58.226563 C 70.84375 58.4375 70.746094 58.726563 70.746094 59.097656 M 70.199219 62.21875 L 70.199219 57.503906 L 70.738281 57.503906 L 70.738281 58.097656 C 70.867188 57.871094 71.035156 57.695313 71.246094 57.570313 C 71.457031 57.449219 71.6875 57.386719 71.949219 57.386719 C 72.425781 57.386719 72.808594 57.542969 73.097656 57.855469 C 73.386719 58.167969 73.53125 58.582031 73.53125 59.097656 C 73.53125 59.621094 73.390625 60.039063 73.105469 60.347656 C 72.824219 60.652344 72.445313 60.808594 71.96875 60.808594 C 71.695313 60.808594 71.460938 60.75 71.257813 60.628906 C 71.054688 60.511719 70.890625 60.335938 70.761719 60.097656 L 70.761719 62.21875 Z M 70.199219 62.21875 "/>
<path style=" stroke:none;fill-rule:nonzero;fill:rgb(100%,50.19989%,0%);fill-opacity:1;" d="M 76.753906 57.003906 L 77.492188 55.796875 L 78.21875 55.796875 L 77.1875 57.003906 Z M 78.292969 58.730469 C 78.277344 58.449219 78.175781 58.234375 78.003906 58.082031 C 77.828125 57.929688 77.589844 57.855469 77.285156 57.855469 C 77.011719 57.855469 76.78125 57.933594 76.597656 58.09375 C 76.414063 58.25 76.308594 58.464844 76.28125 58.730469 Z M 78.902344 59.167969 L 76.28125 59.167969 L 76.28125 59.21875 C 76.28125 59.558594 76.382813 59.832031 76.582031 60.039063 C 76.785156 60.25 77.050781 60.355469 77.375 60.355469 C 77.597656 60.355469 77.796875 60.296875 77.976563 60.183594 C 78.15625 60.070313 78.3125 59.894531 78.449219 59.664063 L 78.878906 59.941406 C 78.714844 60.230469 78.5 60.445313 78.242188 60.589844 C 77.984375 60.734375 77.6875 60.808594 77.347656 60.808594 C 76.84375 60.808594 76.433594 60.648438 76.125 60.328125 C 75.8125 60.011719 75.65625 59.59375 75.65625 59.074219 C 75.65625 58.578125 75.8125 58.171875 76.121094 57.855469 C 76.429688 57.539063 76.824219 57.382813 77.308594 57.382813 C 77.800781 57.382813 78.1875 57.53125 78.472656 57.832031 C 78.757813 58.132813 78.902344 58.542969 78.902344 59.0625 Z M 78.902344 59.167969 "/>
<path style=" stroke:none;fill-rule:nonzero;fill:rgb(100%,50.19989%,0%);fill-opacity:1;" d="M 81.296875 55.300781 L 81.875 55.300781 L 81.875 60.671875 L 81.296875 60.671875 Z M 81.296875 55.300781 "/>
<path style=" stroke:none;fill-rule:nonzero;fill:rgb(100%,50.19989%,0%);fill-opacity:1;" d="M 85.660156 60.871094 L 84.019531 57.5 L 84.65625 57.5 L 85.652344 59.714844 L 86.652344 57.5 L 87.289063 57.5 Z M 85.660156 60.871094 "/>
<path style=" stroke:none;fill-rule:nonzero;fill:rgb(100%,50.19989%,0%);fill-opacity:1;" d="M 89.4375 57.503906 L 90.011719 57.503906 L 90.011719 60.671875 L 89.4375 60.671875 Z M 89.304688 55.972656 C 89.304688 55.863281 89.34375 55.773438 89.425781 55.695313 C 89.507813 55.617188 89.605469 55.578125 89.71875 55.578125 C 89.835938 55.578125 89.929688 55.617188 90.011719 55.695313 C 90.09375 55.773438 90.132813 55.871094 90.132813 55.980469 C 90.132813 56.089844 90.09375 56.183594 90.011719 56.257813 C 89.933594 56.335938 89.835938 56.371094 89.71875 56.371094 C 89.605469 56.371094 89.507813 56.335938 89.425781 56.257813 C 89.34375 56.183594 89.304688 56.085938 89.304688 55.972656 "/>
<path style=" stroke:none;fill-rule:nonzero;fill:rgb(100%,50.19989%,0%);fill-opacity:1;" d="M 95.253906 59.921875 L 95.253906 60.550781 C 95.101563 60.636719 94.933594 60.703125 94.75 60.746094 C 94.5625 60.789063 94.359375 60.808594 94.144531 60.808594 C 93.632813 60.808594 93.21875 60.652344 92.90625 60.34375 C 92.59375 60.03125 92.441406 59.625 92.441406 59.117188 C 92.441406 58.609375 92.601563 58.195313 92.925781 57.871094 C 93.246094 57.546875 93.660156 57.386719 94.164063 57.386719 C 94.347656 57.386719 94.527344 57.40625 94.703125 57.445313 C 94.875 57.480469 95.042969 57.535156 95.195313 57.605469 L 95.195313 58.1875 C 95.050781 58.097656 94.902344 58.03125 94.746094 57.980469 C 94.59375 57.933594 94.4375 57.910156 94.277344 57.910156 C 93.90625 57.910156 93.605469 58.023438 93.382813 58.246094 C 93.160156 58.46875 93.046875 58.765625 93.046875 59.132813 C 93.046875 59.460938 93.160156 59.734375 93.386719 59.953125 C 93.609375 60.171875 93.894531 60.28125 94.234375 60.28125 C 94.402344 60.28125 94.570313 60.253906 94.734375 60.195313 C 94.898438 60.136719 95.070313 60.046875 95.253906 59.921875 "/>
<path style=" stroke:none;fill-rule:nonzero;fill:rgb(100%,50.19989%,0%);fill-opacity:1;" d="M 97.886719 59.097656 C 97.886719 59.429688 98.003906 59.714844 98.234375 59.945313 C 98.46875 60.179688 98.753906 60.296875 99.085938 60.296875 C 99.417969 60.296875 99.699219 60.179688 99.929688 59.945313 C 100.160156 59.714844 100.277344 59.429688 100.277344 59.097656 C 100.277344 58.761719 100.160156 58.476563 99.929688 58.246094 C 99.699219 58.011719 99.417969 57.898438 99.085938 57.898438 C 98.75 57.898438 98.46875 58.011719 98.234375 58.246094 C 98 58.476563 97.886719 58.761719 97.886719 59.097656 M 97.285156 59.097656 C 97.285156 58.863281 97.328125 58.644531 97.417969 58.4375 C 97.507813 58.230469 97.636719 58.046875 97.808594 57.882813 C 97.980469 57.722656 98.175781 57.597656 98.390625 57.515625 C 98.609375 57.429688 98.839844 57.386719 99.085938 57.386719 C 99.328125 57.386719 99.554688 57.429688 99.769531 57.515625 C 99.988281 57.601563 100.183594 57.726563 100.359375 57.890625 C 100.53125 58.050781 100.660156 58.234375 100.75 58.441406 C 100.839844 58.644531 100.882813 58.863281 100.882813 59.097656 C 100.882813 59.328125 100.839844 59.546875 100.75 59.75 C 100.660156 59.953125 100.53125 60.136719 100.359375 60.296875 C 100.183594 60.460938 99.984375 60.589844 99.765625 60.675781 C 99.550781 60.765625 99.324219 60.808594 99.085938 60.808594 C 98.84375 60.808594 98.613281 60.765625 98.394531 60.679688 C 98.175781 60.59375 97.980469 60.46875 97.808594 60.304688 C 97.636719 60.140625 97.507813 59.957031 97.417969 59.75 C 97.328125 59.546875 97.285156 59.332031 97.285156 59.097656 "/>
<path style=" stroke:none;fill-rule:nonzero;fill:rgb(100%,50.19989%,0%);fill-opacity:1;" d="M 55.882813 35.300781 L 53.707031 40.125 L 58.058594 40.125 Z M 55.882813 31.851563 L 62.101563 45.476563 L 60.335938 45.476563 L 58.5625 41.457031 L 53.222656 41.457031 L 51.445313 45.476563 L 49.679688 45.476563 Z M 55.882813 31.851563 "/>
<path style=" stroke:none;fill-rule:nonzero;fill:rgb(100%,50.19989%,0%);fill-opacity:1;" d="M 76.691406 45.984375 L 72.445313 36.570313 L 70.726563 45.476563 L 69.136719 45.476563 L 71.910156 31.851563 L 76.691406 42.691406 L 81.476563 31.851563 L 84.25 45.476563 L 82.660156 45.476563 L 80.925781 36.570313 Z M 76.691406 45.984375 "/>
<path style=" stroke:none;fill-rule:nonzero;fill:rgb(100%,50.19989%,0%);fill-opacity:1;" d="M 98.140625 38.199219 C 99.027344 38.5625 99.703125 39.046875 100.152344 39.648438 C 100.601563 40.253906 100.828125 40.964844 100.828125 41.789063 C 100.828125 42.996094 100.429688 43.964844 99.628906 44.703125 C 98.828125 45.4375 97.769531 45.808594 96.449219 45.808594 C 95.371094 45.808594 94.46875 45.542969 93.742188 45.015625 C 93.011719 44.488281 92.519531 43.738281 92.265625 42.765625 L 93.742188 42.066406 C 93.941406 42.859375 94.269531 43.460938 94.726563 43.871094 C 95.183594 44.277344 95.757813 44.480469 96.449219 44.480469 C 97.265625 44.480469 97.925781 44.257813 98.429688 43.804688 C 98.933594 43.355469 99.183594 42.769531 99.183594 42.046875 C 99.183594 41.464844 99.011719 40.953125 98.660156 40.523438 C 98.304688 40.089844 97.777344 39.722656 97.066406 39.425781 L 95.402344 38.746094 C 94.492188 38.382813 93.816406 37.914063 93.371094 37.339844 C 92.925781 36.765625 92.703125 36.082031 92.703125 35.28125 C 92.703125 34.351563 93.0625 33.582031 93.785156 32.972656 C 94.507813 32.363281 95.429688 32.058594 96.550781 32.058594 C 97.375 32.058594 98.085938 32.226563 98.6875 32.5625 C 99.285156 32.894531 99.753906 33.386719 100.09375 34.039063 L 98.746094 34.859375 C 98.441406 34.355469 98.097656 33.976563 97.71875 33.730469 C 97.339844 33.480469 96.910156 33.355469 96.429688 33.355469 C 95.820313 33.355469 95.320313 33.535156 94.929688 33.894531 C 94.542969 34.253906 94.347656 34.710938 94.347656 35.265625 C 94.347656 35.730469 94.496094 36.132813 94.796875 36.472656 C 95.09375 36.8125 95.558594 37.113281 96.1875 37.375 Z M 98.140625 38.199219 "/>
</g>
</svg>