<?xml version="1.0" encoding="UTF-8" standalone="no"?>
<!-- Created with Inkscape (http://www.inkscape.org/) -->

<svg
   width="210mm"
   height="297mm"
   viewBox="0 0 210 297"
   version="1.1"
   id="svg390"
   inkscape:version="1.1.1 (3bf5ae0d25, 2021-09-20)"
   sodipodi:docname="logo.svg"
   xmlns:inkscape="http://www.inkscape.org/namespaces/inkscape"
   xmlns:sodipodi="http://sodipodi.sourceforge.net/DTD/sodipodi-0.dtd"
   xmlns="http://www.w3.org/2000/svg"
   xmlns:svg="http://www.w3.org/2000/svg">
  <sodipodi:namedview
     id="namedview392"
     pagecolor="#ffffff"
     bordercolor="#666666"
     borderopacity="1.0"
     inkscape:pageshadow="2"
     inkscape:pageopacity="0.0"
     inkscape:pagecheckerboard="0"
     inkscape:document-units="mm"
     showgrid="false"
     inkscape:zoom="0.46324355"
     inkscape:cx="396.11993"
     inkscape:cy="560.1805"
     inkscape:window-width="1366"
     inkscape:window-height="705"
     inkscape:window-x="-8"
     inkscape:window-y="-8"
     inkscape:window-maximized="1"
     inkscape:current-layer="layer1" />
  <defs
     id="defs387" />
  <g
     inkscape:label="Capa 1"
     inkscape:groupmode="layer"
     id="layer1">
    <g
       id="surface1"
       transform="matrix(0.42575003,0,0,0.42575003,-66.186617,34.955714)">
      <path
         style="fill:#000000;fill-opacity:1;fill-rule:nonzero;stroke:none"
         d="m 49.691406,52.886719 v -2.722656 h -0.640625 v -0.449219 h 0.640625 v -0.917969 c 0,-0.527344 0.06641,-0.882812 0.207032,-1.070312 0.136718,-0.183594 0.386718,-0.277344 0.746093,-0.277344 0.08984,0 0.171875,0.0039 0.253907,0.01563 0.08203,0.01172 0.160156,0.03125 0.234375,0.05859 v 0.558593 c -0.07422,-0.03906 -0.144532,-0.06641 -0.21875,-0.08594 -0.07422,-0.01563 -0.148438,-0.02734 -0.226563,-0.02734 -0.164062,0 -0.28125,0.05078 -0.34375,0.152344 -0.0625,0.101562 -0.09375,0.351562 -0.09375,0.75 v 0.84375 h 0.882813 v 0.449219 h -0.867188 v 2.722656 z m 0,0"
         id="path78" />
      <path
         style="fill:#000000;fill-opacity:1;fill-rule:nonzero;stroke:none"
         d="m 53.230469,49.714844 h 0.570312 v 3.171875 H 53.230469 Z M 53.097656,48.1875 c 0,-0.109375 0.03906,-0.203125 0.121094,-0.277344 0.07813,-0.07813 0.175781,-0.117187 0.292969,-0.117187 0.113281,0 0.210937,0.03906 0.292969,0.117187 0.07813,0.07813 0.121093,0.171875 0.121093,0.285157 0,0.109375 -0.03906,0.199218 -0.121093,0.277343 -0.07813,0.07422 -0.175782,0.113282 -0.292969,0.113282 -0.117188,0 -0.214844,-0.03906 -0.292969,-0.113282 -0.08203,-0.07813 -0.121094,-0.171875 -0.121094,-0.285156"
         id="path80" />
      <path
         style="fill:#000000;fill-opacity:1;fill-rule:nonzero;stroke:none"
         d="m 56.160156,52.351563 0.484375,-0.308594 c 0.09375,0.167969 0.210938,0.292969 0.347657,0.378906 0.140625,0.08203 0.308593,0.125 0.496093,0.125 0.1875,0 0.335938,-0.04297 0.453125,-0.132812 0.113282,-0.08594 0.171875,-0.203125 0.171875,-0.34375 0,-0.113282 -0.03906,-0.203125 -0.117187,-0.277344 -0.07813,-0.07422 -0.214844,-0.144531 -0.40625,-0.207031 -0.01953,-0.0039 -0.05078,-0.01563 -0.09375,-0.03125 -0.804688,-0.265625 -1.207031,-0.597657 -1.207031,-0.996094 0,-0.28125 0.109375,-0.511719 0.324218,-0.691406 0.21875,-0.175782 0.5,-0.265625 0.847657,-0.265625 0.289062,0 0.535156,0.05469 0.738281,0.164062 0.203125,0.109375 0.351562,0.265625 0.441406,0.464844 l -0.460937,0.273437 c -0.06641,-0.144531 -0.164063,-0.257812 -0.296875,-0.335937 -0.132813,-0.08203 -0.285157,-0.121094 -0.457032,-0.121094 -0.167968,0 -0.304687,0.04687 -0.410156,0.136719 -0.101562,0.08594 -0.15625,0.199219 -0.15625,0.339844 0,0.195312 0.222656,0.355468 0.660156,0.488281 0.08203,0.02734 0.148438,0.04687 0.195313,0.05859 0.359375,0.113281 0.609375,0.238281 0.75,0.378906 0.140625,0.144531 0.210937,0.332031 0.210937,0.5625 0,0.304687 -0.109375,0.546875 -0.335937,0.730469 -0.222656,0.1875 -0.511719,0.28125 -0.871094,0.28125 -0.308594,0 -0.574219,-0.05469 -0.785156,-0.167969 -0.21875,-0.109375 -0.390625,-0.277344 -0.523438,-0.503906"
         id="path82" />
      <path
         style="fill:#000000;fill-opacity:1;fill-rule:nonzero;stroke:none"
         d="m 61.078125,49.714844 h 0.570313 v 3.171875 H 61.078125 Z M 60.941406,48.1875 c 0,-0.109375 0.04297,-0.203125 0.121094,-0.277344 0.08203,-0.07813 0.179688,-0.117187 0.296875,-0.117187 0.113281,0 0.210938,0.03906 0.289063,0.117187 0.08203,0.07813 0.125,0.171875 0.125,0.285157 0,0.109375 -0.04297,0.199218 -0.121094,0.277343 -0.07813,0.07422 -0.175781,0.113282 -0.292969,0.113282 -0.117187,0 -0.214844,-0.03906 -0.296875,-0.113282 -0.07813,-0.07813 -0.121094,-0.171875 -0.121094,-0.285156"
         id="path84" />
      <path
         style="fill:#000000;fill-opacity:1;fill-rule:nonzero;stroke:none"
         d="m 64.695313,51.308594 c 0,0.335937 0.117187,0.621094 0.347656,0.851562 0.238281,0.234375 0.519531,0.347657 0.851562,0.347657 0.328125,0 0.613282,-0.113282 0.84375,-0.347657 0.230469,-0.230468 0.347657,-0.515625 0.347657,-0.851562 0,-0.332031 -0.117188,-0.617188 -0.347657,-0.847656 -0.230468,-0.234375 -0.515625,-0.351563 -0.84375,-0.351563 -0.335937,0 -0.621093,0.117188 -0.851562,0.351563 -0.234375,0.230468 -0.347656,0.515625 -0.347656,0.847656 m -0.601563,0 c 0,-0.230469 0.04687,-0.453125 0.132813,-0.660156 0.08984,-0.203125 0.21875,-0.390625 0.390625,-0.550782 0.171875,-0.164062 0.367187,-0.285156 0.582031,-0.371093 0.21875,-0.08203 0.449219,-0.125 0.695312,-0.125 0.242188,0 0.46875,0.04297 0.6875,0.128906 0.214844,0.08594 0.410157,0.210937 0.585938,0.371094 0.171875,0.160156 0.300781,0.34375 0.390625,0.550781 0.08984,0.207031 0.132812,0.425781 0.132812,0.65625 0,0.234375 -0.04297,0.449219 -0.132812,0.65625 -0.08984,0.203125 -0.21875,0.386719 -0.390625,0.542969 -0.175781,0.167968 -0.371094,0.292968 -0.589844,0.382812 -0.21875,0.08594 -0.445312,0.132813 -0.683594,0.132813 -0.242187,0 -0.472656,-0.04297 -0.691406,-0.132813 -0.21875,-0.08594 -0.414062,-0.210937 -0.585937,-0.371094 -0.171875,-0.167968 -0.300782,-0.351562 -0.390625,-0.554687 -0.08594,-0.203125 -0.132813,-0.421875 -0.132813,-0.65625"
         id="path86" />
      <path
         style="fill:#000000;fill-opacity:1;fill-rule:nonzero;stroke:none"
         d="m 70.179688,50.164063 h -0.609375 v -0.449219 h 0.609375 V 48.4375 h 0.578125 v 1.277344 h 0.609375 v 0.449219 h -0.609375 v 2.722656 h -0.578125 z m 0,0"
         id="path88" />
      <path
         style="fill:#000000;fill-opacity:1;fill-rule:nonzero;stroke:none"
         d="m 75.875,50.941406 c -0.01563,-0.277343 -0.113281,-0.492187 -0.289062,-0.644531 -0.175782,-0.152344 -0.414063,-0.226562 -0.71875,-0.226562 -0.273438,0 -0.503907,0.07813 -0.6875,0.238281 -0.183594,0.15625 -0.289063,0.367187 -0.316407,0.632812 z m 0.609375,0.441407 h -2.621094 v 0.05078 c 0,0.339844 0.101563,0.613281 0.300782,0.820312 0.203125,0.210938 0.46875,0.3125 0.792968,0.3125 0.222657,0 0.421875,-0.05469 0.601563,-0.167968 0.179687,-0.117188 0.335937,-0.289063 0.472656,-0.519532 l 0.433594,0.277344 c -0.167969,0.285156 -0.378906,0.503906 -0.636719,0.648438 -0.261719,0.144531 -0.558594,0.21875 -0.898437,0.21875 -0.503907,0 -0.910157,-0.160157 -1.222657,-0.480469 -0.3125,-0.316406 -0.46875,-0.734375 -0.46875,-1.253906 0,-0.496094 0.15625,-0.902344 0.464844,-1.21875 0.308594,-0.316407 0.703125,-0.476563 1.191406,-0.476563 0.488282,0 0.875,0.152344 1.160157,0.453125 0.285156,0.300781 0.429687,0.710938 0.429687,1.230469 z m 0,0"
         id="path90" />
      <path
         style="fill:#000000;fill-opacity:1;fill-rule:nonzero;stroke:none"
         d="m 78.863281,52.886719 v -3.171875 h 0.503907 V 50.375 c 0.152343,-0.273437 0.3125,-0.472656 0.484375,-0.589844 0.171875,-0.117187 0.378906,-0.175781 0.625,-0.175781 0.07031,0 0.132812,0.0039 0.195312,0.01563 0.06641,0.0078 0.125,0.02734 0.1875,0.04687 l -0.1875,0.488281 c -0.0625,-0.01953 -0.125,-0.03906 -0.183594,-0.04687 -0.05859,-0.01172 -0.113281,-0.01563 -0.167968,-0.01563 -0.296875,0 -0.523438,0.101563 -0.671875,0.308594 -0.148438,0.207031 -0.226563,0.519531 -0.226563,0.933594 v 1.546875 z m 0,0"
         id="path92" />
      <path
         style="fill:#000000;fill-opacity:1;fill-rule:nonzero;stroke:none"
         d="m 85.507813,51.332031 c 0,-0.359375 -0.101563,-0.648437 -0.304688,-0.867187 -0.207031,-0.214844 -0.46875,-0.324219 -0.796875,-0.324219 -0.339844,0 -0.605469,0.09766 -0.796875,0.300781 -0.191406,0.199219 -0.285156,0.480469 -0.285156,0.839844 0,0.386719 0.09375,0.679688 0.289062,0.890625 0.1875,0.207031 0.460938,0.308594 0.8125,0.308594 0.339844,0 0.601563,-0.09766 0.796875,-0.300781 0.191407,-0.203125 0.285157,-0.484375 0.285157,-0.847657 m 0.550781,-1.617187 v 3.171875 H 85.507813 V 52.3125 C 85.375,52.542969 85.207031,52.71875 85,52.839844 c -0.207031,0.121094 -0.4375,0.183594 -0.691406,0.183594 -0.476563,0 -0.859375,-0.15625 -1.152344,-0.46875 -0.289062,-0.316407 -0.433594,-0.730469 -0.433594,-1.246094 0,-0.519531 0.140625,-0.933594 0.421875,-1.246094 0.285157,-0.308594 0.660157,-0.460937 1.132813,-0.460937 0.277344,0 0.519531,0.05859 0.722656,0.179687 0.203125,0.117188 0.367188,0.296875 0.492188,0.53125 v -0.597656 z m 0,0"
         id="path94" />
      <path
         style="fill:#000000;fill-opacity:1;fill-rule:nonzero;stroke:none"
         d="m 89.253906,51.308594 c 0,0.355469 0.101563,0.644531 0.308594,0.855469 0.203125,0.21875 0.476563,0.324218 0.8125,0.324218 0.332031,0 0.589844,-0.09766 0.78125,-0.292968 0.1875,-0.199219 0.28125,-0.46875 0.28125,-0.820313 0,-0.390625 -0.09375,-0.695312 -0.28125,-0.917969 C 90.964844,50.234375 90.703125,50.125 90.367188,50.125 c -0.347657,0 -0.617188,0.105469 -0.816407,0.316406 -0.199218,0.210938 -0.296875,0.5 -0.296875,0.867188 m -0.542968,3.125 v -4.71875 H 89.25 V 50.3125 c 0.125,-0.230469 0.292969,-0.40625 0.503906,-0.527344 0.210938,-0.121093 0.445313,-0.183593 0.703125,-0.183593 0.476563,0 0.859375,0.15625 1.148438,0.46875 0.289062,0.3125 0.433594,0.722656 0.433594,1.238281 0,0.527344 -0.140625,0.941406 -0.425782,1.25 -0.28125,0.308594 -0.660156,0.464844 -1.136718,0.464844 -0.273438,0 -0.511719,-0.0625 -0.710938,-0.179688 C 89.5625,52.722656 89.394531,52.546875 89.269531,52.3125 v 2.121094 z m 0,0"
         id="path96" />
      <path
         style="fill:#000000;fill-opacity:1;fill-rule:nonzero;stroke:none"
         d="M 94.492188,49.714844 H 95.0625 v 3.171875 H 94.492188 Z M 94.359375,48.1875 c 0,-0.109375 0.03906,-0.203125 0.121094,-0.277344 0.07813,-0.07813 0.175781,-0.117187 0.292969,-0.117187 0.113281,0 0.210937,0.03906 0.292968,0.117187 0.07813,0.07813 0.121094,0.171875 0.121094,0.285157 0,0.109375 -0.03906,0.199218 -0.121094,0.277343 -0.07813,0.07422 -0.175781,0.113282 -0.292968,0.113282 -0.117188,0 -0.214844,-0.03906 -0.292969,-0.113282 -0.08203,-0.07813 -0.121094,-0.171875 -0.121094,-0.285156"
         id="path98" />
      <path
         style="fill:#000000;fill-opacity:1;fill-rule:nonzero;stroke:none"
         d="m 100.30859,51.332031 c 0,-0.359375 -0.10156,-0.648437 -0.30859,-0.867187 -0.203125,-0.214844 -0.46875,-0.324219 -0.796875,-0.324219 -0.339844,0 -0.605469,0.09766 -0.792969,0.300781 -0.191406,0.199219 -0.289062,0.480469 -0.289062,0.839844 0,0.386719 0.09766,0.679688 0.289062,0.890625 0.191407,0.207031 0.464844,0.308594 0.816407,0.308594 0.335937,0 0.601562,-0.09766 0.792967,-0.300781 0.19141,-0.203125 0.28906,-0.484375 0.28906,-0.847657 m 0.55079,-1.617187 v 3.171875 h -0.55079 V 52.3125 c -0.13281,0.230469 -0.30468,0.40625 -0.507809,0.527344 -0.207031,0.121094 -0.4375,0.183594 -0.695312,0.183594 -0.472656,0 -0.855469,-0.15625 -1.148438,-0.46875 -0.289062,-0.316407 -0.433593,-0.730469 -0.433593,-1.246094 0,-0.519531 0.140625,-0.933594 0.421875,-1.246094 0.28125,-0.308594 0.660156,-0.460937 1.132812,-0.460937 0.277344,0 0.515625,0.05859 0.722656,0.179687 0.203129,0.117188 0.367189,0.296875 0.492189,0.53125 v -0.597656 z m 0,0"
         id="path100" />
      <path
         style="fill:#ff7f00;fill-opacity:1;fill-rule:nonzero;stroke:none"
         d="m 18.621094,36.566406 c 0,0 0.195312,-0.101562 0.554687,-0.285156 0.175782,-0.105469 0.410157,-0.191406 0.6875,-0.292969 0.273438,-0.113281 0.597657,-0.222656 0.96875,-0.3125 0.730469,-0.214843 1.640625,-0.371093 2.691407,-0.519531 1.050781,-0.136719 2.246093,-0.242187 3.550781,-0.246094 1.304687,-0.01563 2.722656,0.01953 4.214844,0.167969 0.75,0.07813 1.519531,0.179688 2.304687,0.332031 0.398438,0.09766 0.777344,0.164063 1.21875,0.332032 0.21875,0.07422 0.429688,0.152343 0.59375,0.25 l 0.269531,0.136718 c 0.179688,0.125 0.21875,0.171875 0.332032,0.265625 0.777343,0.695313 0.980468,1.691407 1.054687,2.5625 0.06641,0.898438 -0.02344,1.78125 -0.183594,2.648438 -0.167968,0.867187 -0.40625,1.722656 -0.738281,2.566406 -0.339844,0.886719 -0.863281,1.601563 -1.382812,2.347656 -1.105469,1.429688 -2.496094,2.609375 -4.046875,3.476563 -0.382813,0.226562 -0.808594,0.382812 -1.207032,0.574219 -0.417968,0.171875 -0.894531,0.277343 -1.335937,0.40625 l -0.621094,0.07031 -0.308594,0.03125 -0.07422,0.0078 c -0.132813,0.01172 -0.08594,-0.0039 -0.136719,-0.0039 L 26.855469,51.0625 C 26.402344,51.007813 25.941406,50.972656 25.539063,50.804688 23.875,50.269531 22.574219,49.25 21.457031,48.222656 20.347656,47.175781 19.476563,46.007813 18.773438,44.910156 18.089844,43.777344 17.628906,42.605469 17.515625,41.523438 17.386719,40.445313 17.488281,39.5 17.695313,38.757813 c 0.117187,-0.367188 0.207031,-0.695313 0.3125,-0.96875 0.132812,-0.265625 0.246093,-0.488282 0.335937,-0.667969 0.183594,-0.363281 0.277344,-0.554688 0.277344,-0.554688 m 0,0 c 0,0 -0.07422,0.203125 -0.222656,0.578125 -0.07031,0.191407 -0.160157,0.421875 -0.265625,0.695313 -0.0625,0.285156 -0.136719,0.609375 -0.21875,0.972656 -0.144532,0.722656 -0.175782,1.640625 0.01953,2.636719 0.183594,1.007812 0.699219,2.058594 1.382812,3.113281 0.742188,1.042969 1.609375,2.101563 2.703125,3.042969 1.09375,0.929687 2.382813,1.796875 3.808594,2.246094 0.355469,0.148437 0.714844,0.152343 1.078125,0.199218 l 0.132813,0.01563 c 0,0.0039 0.09766,0.0078 0.01953,0.0078 l 0.07422,-0.0078 0.308593,-0.03516 0.617188,-0.07813 c 0.347656,-0.128906 0.695312,-0.207031 1.050781,-0.355469 0.355469,-0.183593 0.730469,-0.324218 1.078125,-0.535156 1.398438,-0.804687 2.675781,-1.925781 3.660156,-3.242187 0.46875,-0.660157 0.988282,-1.351563 1.265625,-2.070313 0.3125,-0.753906 0.546875,-1.550781 0.710938,-2.351562 0.164062,-0.796875 0.253906,-1.601563 0.207031,-2.367188 C 35.984379,38.27734 35.796874,37.52734 35.335937,37.128902 35.296875,37.089844 35.183594,37.003906 35.207031,37 L 34.9375,36.859375 C 34.757813,36.75 34.59375,36.695313 34.433594,36.644531 c -0.300781,-0.121093 -0.695313,-0.207031 -1.046875,-0.3125 -0.738281,-0.179687 -1.472656,-0.3125 -2.199219,-0.421875 -1.445312,-0.210937 -2.835937,-0.308593 -4.121094,-0.351562 -1.28125,-0.04297 -2.460937,-0.02734 -3.503906,0.02344 -1.039062,0.06641 -1.949219,0.15625 -2.679687,0.3125 -0.371094,0.0625 -0.695313,0.140625 -0.976563,0.222657 -0.28125,0.07422 -0.523437,0.132812 -0.707031,0.21875 -0.375,0.152343 -0.578125,0.230468 -0.578125,0.230468"
         id="path102" />
      <path
         style="fill:none;stroke:#1e1714;stroke-width:0.096;stroke-linecap:butt;stroke-linejoin:miter;stroke-miterlimit:10;stroke-opacity:1"
         d="M -9.5e-4,5.3125e-4 C -1.079075,0.26225 -4.051731,2.164594 -5.008762,3.566938 c -1,1.445312 2.375,-6.65625 2.84375,-7.425782 0.703125,-1.152343 1.625,-2.074218 3.28125,-2.074218 3.605468,0 6.097656,2.839843 8.757812,2.855468 2.84375,-0.015625 4.480469,-2.855468 8.347656,-2.855468 2.230469,0 3.402344,1.535156 4.027344,2.808593 0.707031,1.214844 3.0625,7.699219 2.441406,6.691407 C 23.198269,1.309125 20.057644,5.3125e-4 20.057644,5.3125e-4 c 0,0 -0.324219,-3.98046825 -2.226563,-3.98046825 -1.773437,0 -3.136718,1.476562 -2.398437,3.0625 -2.171875,-1.109375 -9.410156,-1.140625 -11.433594,0 0.949219,-1.65625 0.414063,-2.980469 -1.703125,-3.0625 -2.296875,0.25 -2.019531,3.160156 -2.296875,3.98046825 z m 0,0"
         transform="matrix(1,0,0,-1,17.2822,54.981)"
         id="path104" />
      <path
         style="fill:#1e1714;fill-opacity:1;fill-rule:nonzero;stroke:none"
         d="m 17.726563,34.441406 c -0.5,1.074219 -0.96875,2.167969 -1.339844,3.292969 -0.183594,0.566406 -0.332031,1.136719 -0.464844,1.710938 -0.109375,0.582031 -0.203125,1.164062 -0.230469,1.75 -0.05859,1.175781 0.121094,2.355468 0.566407,3.441406 0.4375,1.085937 1.042968,2.117187 1.804687,3.003906 0.378906,0.445313 0.785156,0.871094 1.21875,1.273438 0.421875,0.410156 0.878906,0.789062 1.335938,1.160156 C 21.535156,50.816406 22.5,51.5 23.5,52.128906 c 1,0.625 2.03125,1.210938 3.105469,1.691407 1.070312,0.480468 2.1875,0.902343 3.332031,1.054687 l 0.984375,0.132813 -0.953125,0.238281 c -0.796875,0.199219 -1.59375,0.386719 -2.40625,0.484375 -0.8125,0.101562 -1.632812,0.164062 -2.449219,0.144531 -0.410156,0.01172 -0.816406,-0.01563 -1.226562,-0.05078 -0.40625,-0.02344 -0.8125,-0.06641 -1.214844,-0.132813 -0.40625,-0.05469 -0.808594,-0.121093 -1.207031,-0.214843 -0.402344,-0.07422 -0.800781,-0.167969 -1.191406,-0.285157 -0.789063,-0.203125 -1.5625,-0.472656 -2.320313,-0.78125 -0.757812,-0.296875 -1.488281,-0.664062 -2.207031,-1.050781 -1.398438,-0.816406 -2.808594,-1.742187 -3.761719,-3.105469 -0.464844,-0.675781 -0.878906,-1.382812 -1.214844,-2.125 -0.175781,-0.367187 -0.34375,-0.742187 -0.484375,-1.125 C 10.128906,46.628906 9.992188,46.246094 9.875,45.855469 9.613281,45.085938 9.417969,44.292969 9.257813,43.496094 9.085938,42.699219 8.988281,41.890625 8.894531,41.082031 c -0.058593,-0.8125 -0.105468,-1.625 -0.082031,-2.4375 0,-0.8125 0.078125,-1.625 0.164063,-2.433593 0.109375,-0.804688 0.234375,-1.605469 0.433593,-2.394532 0.148438,-0.800781 0.445313,-1.5625 0.664063,-2.34375 l 0.0039,-0.02734 0.03125,-0.0078 c 0.707031,-0.203125 1.441406,-0.308594 2.175781,-0.289062 0.738282,0.02344 1.464844,0.179687 2.144532,0.460937 1.355468,0.574219 2.503906,1.585938 3.296875,2.8125 l 0.0078,0.0078 z m -0.03906,-0.0078 C 16.890628,33.226575 15.742191,32.230481 14.402347,31.6797 13.054691,31.1172 11.523441,31.121106 10.140628,31.542981 l 0.03516,-0.03516 c -0.210937,0.777343 -0.5,1.539062 -0.640625,2.335937 -0.191413,0.785148 -0.3086,1.58593 -0.410163,2.386711 -0.082031,0.800781 -0.152344,1.609375 -0.144531,2.417969 -0.015625,0.804687 0.039062,1.609375 0.105469,2.414062 0.09375,0.800781 0.195312,1.601563 0.371093,2.390625 0.164063,0.789063 0.363282,1.574219 0.625,2.335938 0.121094,0.382812 0.257813,0.761718 0.414063,1.132812 0.140625,0.378906 0.308594,0.746094 0.484375,1.105469 0.335937,0.730469 0.75,1.425781 1.207031,2.082031 0.921875,1.308594 2.3125,2.214844 3.695313,3.007813 0.707031,0.378906 1.429687,0.734375 2.179687,1.023437 0.746094,0.300781 1.511719,0.5625 2.289063,0.757813 0.386718,0.109375 0.78125,0.199218 1.175781,0.269531 0.390625,0.08984 0.789062,0.152344 1.1875,0.199219 0.398437,0.0625 0.796875,0.105468 1.199219,0.125 0.398437,0.03125 0.800781,0.05469 1.199218,0.04297 0.804688,0.01172 1.605469,-0.05469 2.398438,-0.160156 0.796875,-0.101562 1.574219,-0.292969 2.351562,-0.492187 L 29.894531,55.25 C 28.675781,55.089844 27.542969,54.65625 26.449219,54.167969 25.351563,53.675781 24.308594,53.085938 23.296875,52.453125 22.285156,51.8125 21.300781,51.128906 20.382813,50.359375 19.925781,49.972656 19.46875,49.585938 19.042969,49.160156 18.609375,48.75 18.203125,48.304688 17.816406,47.84375 c -0.769531,-0.929687 -1.371093,-1.988281 -1.804687,-3.109375 -0.441406,-1.125 -0.613281,-2.351562 -0.53125,-3.550781 0.03516,-0.597656 0.136719,-1.191406 0.261719,-1.777344 0.136718,-0.582031 0.3125,-1.152344 0.511718,-1.714844 0.402344,-1.121093 0.902344,-2.199218 1.433594,-3.257812"
         id="path106" />
      <path
         style="fill:#1e1714;fill-opacity:1;fill-rule:nonzero;stroke:none"
         d="m 36.183594,34.433594 c 0.300781,0.496094 0.640625,0.972656 0.875,1.507812 0.28125,0.519532 0.46875,1.078125 0.679687,1.628907 0.15625,0.566406 0.328125,1.132812 0.410157,1.71875 0.109375,0.578125 0.152343,1.171875 0.175781,1.757812 0.02344,0.59375 -0.01172,1.179688 -0.05078,1.769531 -0.07031,0.585938 -0.152344,1.171875 -0.285157,1.75 -0.257812,1.152344 -0.652343,2.277344 -1.199218,3.328125 -0.265625,0.535157 -0.601563,1.039063 -0.945313,1.503907 -0.398437,0.472656 -0.824219,0.898437 -1.332031,1.226562 -0.996094,0.6875 -2.15625,1.058594 -3.308594,1.320313 C 28.875,52.4375 26.5,52.4375 24.15625,52.351563 l 0.117188,-0.34375 0.964843,0.527343 c 0.324219,0.171875 0.640625,0.359375 0.972657,0.519532 l 2.035156,0.886718 -0.01172,-0.0039 c 0.6875,0.207031 1.386719,0.363281 2.097656,0.445313 l 1.066407,0.09375 c 0.359375,0.01172 0.722656,0 1.085937,0 0.726563,0.0078 1.433594,-0.03906 2.15625,-0.121094 0.714844,-0.08203 1.425781,-0.195313 2.105469,-0.417969 1.378906,-0.414062 2.59375,-1.195312 3.671875,-2.160156 0.578125,-0.441406 1.003906,-1.011719 1.421875,-1.59375 0.398437,-0.601563 0.753906,-1.226563 1.074219,-1.875 0.320312,-0.644531 0.59375,-1.316406 0.855468,-1.988281 0.234375,-0.683594 0.472657,-1.363282 0.648438,-2.066407 0.203125,-0.695312 0.324219,-1.410156 0.460937,-2.117187 0.105469,-0.714844 0.210938,-1.429688 0.242188,-2.15625 0.07813,-0.71875 0.03125,-1.441406 0.03906,-2.164063 -0.07813,-0.71875 -0.08203,-1.449218 -0.238281,-2.15625 -0.06641,-0.355468 -0.121094,-0.710937 -0.195312,-1.066406 L 44.4375,33.550781 C 44.269531,32.84375 43.941406,32.191406 43.699219,31.511719 l 0.03516,0.03125 c -0.355469,-0.07422 -0.703125,-0.1875 -1.0625,-0.230469 L 42.12891,31.25781 c -0.175781,-0.03125 -0.359375,-0.0039 -0.539062,-0.0078 -0.183594,0.01172 -0.363281,-0.0039 -0.542969,0.03125 l -0.539062,0.08203 c -0.347657,0.09375 -0.703125,0.171875 -1.035157,0.324219 -0.167968,0.06641 -0.335937,0.132813 -0.496093,0.222656 -0.15625,0.08984 -0.324219,0.160157 -0.472657,0.265625 -0.3125,0.191407 -0.601562,0.40625 -0.882812,0.640625 -0.546875,0.46875 -1.042969,1.007813 -1.4375,1.617188 m -0.03906,-0.01172 c 0.394532,-0.617187 0.890625,-1.167969 1.441407,-1.648437 0.277343,-0.238282 0.570312,-0.457032 0.882812,-0.652344 0.148438,-0.109375 0.320313,-0.179688 0.476563,-0.273438 0.160156,-0.08984 0.328125,-0.160156 0.5,-0.230468 0.332031,-0.152344 0.695312,-0.234375 1.046875,-0.332032 l 0.542968,-0.08984 c 0.183594,-0.03906 0.367188,-0.02344 0.550782,-0.03516 0.183593,0 0.367187,-0.02734 0.550781,0 l 0.546875,0.05469 c 0.367187,0.03906 0.71875,0.148437 1.078125,0.222656 l 0.02734,0.0039 0.0078,0.02344 c 0.25,0.683594 0.585938,1.339844 0.761719,2.046875 l 0.300781,1.050781 c 0.07813,0.355469 0.136719,0.71875 0.203125,1.074219 0.164063,0.714844 0.171875,1.449219 0.257813,2.171875 -0.0039,0.726562 0.05078,1.457031 -0.01953,2.183594 -0.02734,0.730468 -0.125,1.453125 -0.230468,2.175781 -0.132813,0.714844 -0.25,1.4375 -0.453125,2.136719 -0.171875,0.710937 -0.40625,1.402343 -0.636719,2.09375 -0.265625,0.679687 -0.535156,1.359375 -0.855469,2.011718 -0.320312,0.660157 -0.679687,1.296875 -1.082031,1.910157 -0.414063,0.59375 -0.871094,1.203125 -1.453125,1.652343 -1.070313,0.972657 -2.347656,1.8125 -3.757813,2.238282 -0.699218,0.234375 -1.433593,0.351562 -2.15625,0.441406 -0.71875,0.08984 -1.464843,0.140625 -2.1875,0.136719 -0.363281,0.0039 -0.726562,0.01953 -1.089843,0.01172 l -1.105469,-0.08594 c -0.734375,-0.07813 -1.457031,-0.238281 -2.160156,-0.445313 H 28.125 l -0.0039,-0.0039 -2.066406,-0.878906 c -0.339844,-0.160156 -0.667969,-0.351563 -1,-0.527344 l -0.996094,-0.539062 -0.691406,-0.375 0.804687,0.02734 c 2.328125,0.08594 4.683594,0.08203 6.949219,-0.402343 0.5625,-0.125 1.125,-0.269532 1.65625,-0.484375 0.539062,-0.199219 1.054687,-0.449219 1.53125,-0.761719 0.484375,-0.300781 0.898437,-0.707031 1.261719,-1.121094 C 35.929688,48.730469 36.25,48.261719 36.515625,47.75 c 0.546875,-1.015625 0.949219,-2.113281 1.21875,-3.242187 0.140625,-0.566407 0.226563,-1.140625 0.304688,-1.714844 0.04687,-0.578125 0.09375,-1.15625 0.07422,-1.738281 -0.01172,-0.582032 -0.04687,-1.164063 -0.144531,-1.738282 -0.07422,-0.578125 -0.222656,-1.140625 -0.363281,-1.703125 -0.191406,-0.550781 -0.359375,-1.109375 -0.625,-1.632812 -0.222656,-0.542969 -0.546875,-1.03125 -0.835938,-1.539063 l -0.0039,-0.01172 z m 0,0"
         id="path108" />
      <path
         style="fill:#ff7f00;fill-opacity:1;fill-rule:nonzero;stroke:none"
         d="m 49.589844,60.167969 0.464844,-0.300781 c 0.08594,0.164062 0.199218,0.285156 0.332031,0.367187 0.136719,0.08203 0.292969,0.121094 0.476562,0.121094 0.175782,0 0.324219,-0.04297 0.433594,-0.128906 0.109375,-0.08203 0.164063,-0.191407 0.164063,-0.332032 0,-0.105468 -0.03906,-0.195312 -0.113282,-0.265625 -0.07422,-0.07031 -0.203125,-0.136718 -0.386718,-0.195312 -0.01953,-0.0078 -0.05078,-0.01953 -0.08984,-0.03125 -0.773438,-0.253906 -1.164063,-0.574219 -1.164063,-0.960938 0,-0.269531 0.105469,-0.488281 0.316407,-0.660156 0.207031,-0.171875 0.476562,-0.257812 0.8125,-0.257812 0.273437,0 0.511718,0.05469 0.707031,0.160156 0.199219,0.105469 0.339844,0.253906 0.425781,0.445312 l -0.441406,0.261719 c -0.06641,-0.140625 -0.160156,-0.25 -0.289063,-0.324219 -0.125,-0.07422 -0.269531,-0.113281 -0.4375,-0.113281 -0.160156,0 -0.289062,0.04297 -0.390625,0.128906 -0.101562,0.08594 -0.152343,0.195313 -0.152343,0.328125 0,0.1875 0.210937,0.34375 0.632812,0.46875 0.07813,0.02734 0.140625,0.04297 0.1875,0.05859 0.34375,0.105469 0.585938,0.226563 0.722656,0.363281 0.132813,0.136719 0.203125,0.316407 0.203125,0.542969 0,0.285156 -0.109375,0.519531 -0.324218,0.699219 -0.214844,0.179687 -0.492188,0.269531 -0.835938,0.269531 -0.296875,0 -0.550781,-0.05469 -0.757812,-0.160156 -0.207032,-0.109375 -0.375,-0.269531 -0.496094,-0.484375"
         id="path110" />
      <path
         style="fill:#ff7f00;fill-opacity:1;fill-rule:nonzero;stroke:none"
         d="m 53.933594,57.632813 v 1.5 c 0,0.4375 0.06641,0.742187 0.203125,0.917968 0.132812,0.175782 0.363281,0.261719 0.683594,0.261719 0.324218,0 0.550781,-0.08594 0.683593,-0.257812 0.132813,-0.171875 0.199219,-0.480469 0.199219,-0.921875 v -1.5 h 0.558594 v 1.78125 c 0,0.457031 -0.125,0.804687 -0.371094,1.042968 -0.246094,0.234375 -0.605469,0.355469 -1.082031,0.355469 -0.472656,0 -0.832031,-0.121094 -1.078125,-0.359375 -0.246094,-0.234375 -0.367188,-0.582031 -0.367188,-1.039062 v -1.78125 z m 0,0"
         id="path112" />
      <path
         style="fill:#ff7f00;fill-opacity:1;fill-rule:nonzero;stroke:none"
         d="m 60.167969,58.8125 c -0.01953,-0.269531 -0.113281,-0.476562 -0.28125,-0.621094 -0.167969,-0.144531 -0.398438,-0.21875 -0.691406,-0.21875 -0.261719,0 -0.480469,0.07813 -0.65625,0.230469 -0.179688,0.152344 -0.28125,0.355469 -0.308594,0.609375 z M 60.75,59.234375 h -2.519531 v 0.04687 c 0,0.328125 0.09766,0.589844 0.292969,0.792969 0.195312,0.199219 0.445312,0.300781 0.761718,0.300781 0.210938,0 0.40625,-0.05469 0.578125,-0.164062 0.167969,-0.109375 0.320313,-0.277344 0.453125,-0.5 l 0.414063,0.269531 c -0.160156,0.273437 -0.363281,0.480469 -0.613281,0.621094 -0.246094,0.140625 -0.535157,0.210937 -0.863282,0.210937 -0.480468,0 -0.871093,-0.15625 -1.171875,-0.460937 -0.296875,-0.304688 -0.449218,-0.707032 -0.449218,-1.207032 0,-0.476562 0.148437,-0.867187 0.445312,-1.171875 0.296875,-0.304687 0.675781,-0.453125 1.144531,-0.453125 0.46875,0 0.839844,0.140625 1.117188,0.429688 0.273437,0.289062 0.410156,0.683594 0.410156,1.183594 z m 0,0"
         id="path114" />
      <path
         style="fill:#ff7f00;fill-opacity:1;fill-rule:nonzero;stroke:none"
         d="m 62.195313,55.519531 h 0.558593 v 5.160157 h -0.558593 z m 0,0"
         id="path116" />
      <path
         style="fill:#ff7f00;fill-opacity:1;fill-rule:nonzero;stroke:none"
         d="m 64.808594,59.164063 c 0,0.324218 0.113281,0.597656 0.339844,0.820312 0.222656,0.222656 0.496093,0.332031 0.816406,0.332031 0.316406,0 0.585937,-0.109375 0.808594,-0.332031 0.222656,-0.222656 0.335937,-0.496094 0.335937,-0.820312 0,-0.320313 -0.113281,-0.59375 -0.335937,-0.816407 -0.222657,-0.222656 -0.492188,-0.332031 -0.808594,-0.332031 -0.320313,0 -0.59375,0.109375 -0.820313,0.332031 -0.222656,0.222657 -0.335937,0.496094 -0.335937,0.816407 m -0.574219,0 c 0,-0.222657 0.04297,-0.433594 0.128906,-0.632813 0.08594,-0.199219 0.207032,-0.375 0.375,-0.53125 0.164063,-0.15625 0.351563,-0.273437 0.558594,-0.355469 0.210938,-0.08203 0.429688,-0.121093 0.667969,-0.121093 0.230469,0 0.453125,0.04297 0.65625,0.125 0.210937,0.08203 0.398437,0.199218 0.566406,0.359375 0.164063,0.152343 0.289063,0.328125 0.375,0.527343 0.08594,0.199219 0.128906,0.410157 0.128906,0.628907 0,0.222656 -0.04297,0.433593 -0.128906,0.628906 -0.08594,0.195312 -0.210937,0.371094 -0.375,0.523437 -0.167969,0.160157 -0.359375,0.285157 -0.570312,0.367188 -0.207032,0.08594 -0.425782,0.128906 -0.652344,0.128906 -0.234375,0 -0.457031,-0.04297 -0.667969,-0.125 -0.207031,-0.08594 -0.394531,-0.203125 -0.558594,-0.359375 -0.167968,-0.160156 -0.289062,-0.335937 -0.375,-0.53125 -0.08594,-0.195312 -0.128906,-0.40625 -0.128906,-0.632812"
         id="path118" />
      <path
         style="fill:#ff7f00;fill-opacity:1;fill-rule:nonzero;stroke:none"
         d="m 70.746094,59.097656 c 0,0.355469 0.101562,0.640625 0.308594,0.855469 0.203125,0.214844 0.476562,0.320313 0.8125,0.320313 0.332031,0 0.589843,-0.09766 0.78125,-0.292969 0.1875,-0.199219 0.28125,-0.46875 0.28125,-0.816406 0,-0.394532 -0.09375,-0.699219 -0.28125,-0.921875 -0.191407,-0.21875 -0.453125,-0.332032 -0.792969,-0.332032 -0.34375,0 -0.613281,0.105469 -0.8125,0.316407 -0.199219,0.210937 -0.296875,0.5 -0.296875,0.871093 m -0.546875,3.121094 v -4.714844 h 0.539062 v 0.59375 c 0.128907,-0.226562 0.296875,-0.402343 0.507813,-0.527343 0.210937,-0.121094 0.441406,-0.183594 0.703125,-0.183594 0.476562,0 0.859375,0.15625 1.148437,0.46875 0.289063,0.3125 0.433594,0.726562 0.433594,1.242187 0,0.523438 -0.140625,0.941407 -0.425781,1.25 -0.28125,0.304688 -0.660156,0.460938 -1.136719,0.460938 -0.273437,0 -0.507812,-0.05859 -0.710937,-0.179688 -0.203125,-0.117187 -0.367188,-0.292968 -0.496094,-0.53125 v 2.121094 z m 0,0"
         id="path120" />
      <path
         style="fill:#ff7f00;fill-opacity:1;fill-rule:nonzero;stroke:none"
         d="m 76.753906,57.003906 0.738282,-1.207031 h 0.726562 l -1.03125,1.207031 z m 1.539063,1.726563 c -0.01563,-0.28125 -0.117188,-0.496094 -0.289063,-0.648438 -0.175781,-0.152343 -0.414062,-0.226562 -0.71875,-0.226562 -0.273437,0 -0.503906,0.07813 -0.6875,0.238281 -0.183593,0.15625 -0.289062,0.371094 -0.316406,0.636719 z m 0.609375,0.4375 H 76.28125 v 0.05078 c 0,0.339844 0.101563,0.613281 0.300781,0.820313 0.203125,0.210937 0.46875,0.316406 0.792969,0.316406 0.222656,0 0.421875,-0.05859 0.601563,-0.171875 0.179687,-0.113281 0.335937,-0.289063 0.472656,-0.519531 l 0.429687,0.277343 c -0.164062,0.289063 -0.378906,0.503907 -0.636718,0.648438 -0.257813,0.144531 -0.554688,0.21875 -0.894532,0.21875 -0.503906,0 -0.914062,-0.160156 -1.222656,-0.480469 -0.3125,-0.316406 -0.46875,-0.734375 -0.46875,-1.253906 0,-0.496094 0.15625,-0.902344 0.464844,-1.21875 0.308594,-0.316406 0.703125,-0.472656 1.1875,-0.472656 0.492187,0 0.878906,0.148437 1.164062,0.449218 0.285157,0.300782 0.429688,0.710938 0.429688,1.230469 z m 0,0"
         id="path122" />
      <path
         style="fill:#ff7f00;fill-opacity:1;fill-rule:nonzero;stroke:none"
         d="M 81.296875,55.300781 H 81.875 v 5.371094 h -0.578125 z m 0,0"
         id="path124" />
      <path
         style="fill:#ff7f00;fill-opacity:1;fill-rule:nonzero;stroke:none"
         d="M 85.660156,60.871094 84.019531,57.5 h 0.636719 l 0.996094,2.214844 1,-2.214844 h 0.636719 z m 0,0"
         id="path126" />
      <path
         style="fill:#ff7f00;fill-opacity:1;fill-rule:nonzero;stroke:none"
         d="m 89.4375,57.503906 h 0.574219 v 3.167969 H 89.4375 Z m -0.132812,-1.53125 c 0,-0.109375 0.03906,-0.199218 0.121093,-0.277343 0.08203,-0.07813 0.179688,-0.117188 0.292969,-0.117188 0.117188,0 0.210938,0.03906 0.292969,0.117188 0.08203,0.07813 0.121094,0.175781 0.121094,0.285156 0,0.109375 -0.03906,0.203125 -0.121094,0.277344 -0.07813,0.07813 -0.175781,0.113281 -0.292969,0.113281 -0.113281,0 -0.210937,-0.03516 -0.292969,-0.113281 -0.08203,-0.07422 -0.121093,-0.171875 -0.121093,-0.285157"
         id="path128" />
      <path
         style="fill:#ff7f00;fill-opacity:1;fill-rule:nonzero;stroke:none"
         d="m 95.253906,59.921875 v 0.628906 c -0.152343,0.08594 -0.320312,0.152344 -0.503906,0.195313 -0.1875,0.04297 -0.390625,0.0625 -0.605469,0.0625 -0.511718,0 -0.925781,-0.15625 -1.238281,-0.464844 -0.3125,-0.3125 -0.464844,-0.71875 -0.464844,-1.226562 0,-0.507813 0.160157,-0.921875 0.484375,-1.246094 0.320313,-0.324219 0.734375,-0.484375 1.238282,-0.484375 0.183593,0 0.363281,0.01953 0.539062,0.05859 0.171875,0.03516 0.339844,0.08984 0.492188,0.160156 V 58.1875 c -0.144532,-0.08984 -0.292969,-0.15625 -0.449219,-0.207031 -0.152344,-0.04687 -0.308594,-0.07031 -0.46875,-0.07031 -0.371094,0 -0.671875,0.113282 -0.894531,0.335938 -0.222657,0.222656 -0.335938,0.519531 -0.335938,0.886719 0,0.328125 0.113281,0.601562 0.339844,0.820312 0.222656,0.21875 0.507812,0.328125 0.847656,0.328125 0.167969,0 0.335938,-0.02734 0.5,-0.08594 0.164063,-0.05859 0.335938,-0.148438 0.519531,-0.273438"
         id="path130" />
      <path
         style="fill:#ff7f00;fill-opacity:1;fill-rule:nonzero;stroke:none"
         d="m 97.886719,59.097656 c 0,0.332032 0.117187,0.617188 0.347656,0.847657 0.234375,0.234375 0.519531,0.351562 0.851563,0.351562 0.332031,0 0.613281,-0.117187 0.84375,-0.351562 0.230472,-0.230469 0.347652,-0.515625 0.347652,-0.847657 0,-0.335937 -0.11718,-0.621093 -0.347652,-0.851562 -0.230469,-0.234375 -0.511719,-0.347656 -0.84375,-0.347656 -0.335938,0 -0.617188,0.113281 -0.851563,0.347656 C 98,58.476563 97.886719,58.761719 97.886719,59.097656 m -0.601563,0 c 0,-0.234375 0.04297,-0.453125 0.132813,-0.660156 0.08984,-0.207031 0.21875,-0.390625 0.390625,-0.554687 0.171875,-0.160157 0.367187,-0.285157 0.582031,-0.367188 0.21875,-0.08594 0.449219,-0.128906 0.695313,-0.128906 0.242187,0 0.46875,0.04297 0.683593,0.128906 0.21875,0.08594 0.414059,0.210938 0.589849,0.375 0.17187,0.160156 0.30078,0.34375 0.39062,0.550781 0.0898,0.203125 0.13281,0.421875 0.13281,0.65625 0,0.230469 -0.043,0.449219 -0.13281,0.652344 -0.0898,0.203125 -0.21875,0.386719 -0.39062,0.546875 -0.17579,0.164063 -0.375005,0.292969 -0.593755,0.378906 -0.214844,0.08984 -0.441406,0.132813 -0.679687,0.132813 -0.242188,0 -0.472657,-0.04297 -0.691407,-0.128906 -0.21875,-0.08594 -0.414062,-0.210938 -0.585937,-0.375 C 97.636719,60.140625 97.507813,59.957031 97.417969,59.75 97.328125,59.546875 97.285156,59.332031 97.285156,59.097656"
         id="path132" />
      <path
         style="fill:#ff7f00;fill-opacity:1;fill-rule:nonzero;stroke:none"
         d="M 55.882813,35.300781 53.707031,40.125 h 4.351563 z m 0,-3.449218 6.21875,13.625 H 60.335938 L 58.5625,41.457031 h -5.339844 l -1.777343,4.019532 h -1.765625 z m 0,0"
         id="path134" />
      <path
         style="fill:#ff7f00;fill-opacity:1;fill-rule:nonzero;stroke:none"
         d="m 76.691406,45.984375 -4.246093,-9.414062 -1.71875,8.90625 h -1.589844 l 2.773437,-13.625 4.78125,10.839843 4.785157,-10.839843 2.773437,13.625 h -1.589844 l -1.734375,-8.90625 z m 0,0"
         id="path136" />
      <path
         style="fill:#ff7f00;fill-opacity:1;fill-rule:nonzero;stroke:none"
         d="m 98.140625,38.199219 c 0.886719,0.363281 1.5625,0.847656 2.011715,1.449219 0.44922,0.605468 0.67579,1.316406 0.67579,2.140625 0,1.207031 -0.39844,2.175781 -1.199224,2.914062 -0.800781,0.734375 -1.859375,1.105469 -3.179687,1.105469 -1.078125,0 -1.980469,-0.265625 -2.707031,-0.792969 -0.730469,-0.527344 -1.222657,-1.277344 -1.476563,-2.25 l 1.476563,-0.699219 c 0.199218,0.792969 0.527343,1.394532 0.984375,1.804688 0.457031,0.40625 1.03125,0.609375 1.722656,0.609375 0.816406,0 1.476562,-0.222656 1.980469,-0.675781 0.503906,-0.449219 0.753906,-1.035157 0.753906,-1.757813 0,-0.582031 -0.171875,-1.09375 -0.523438,-1.523437 -0.355468,-0.433594 -0.882812,-0.800782 -1.59375,-1.097657 l -1.664062,-0.679687 c -0.910156,-0.363281 -1.585938,-0.832031 -2.03125,-1.40625 -0.445313,-0.574219 -0.667969,-1.257813 -0.667969,-2.058594 0,-0.929687 0.359375,-1.699219 1.082031,-2.308594 0.722657,-0.609375 1.644532,-0.914062 2.765625,-0.914062 0.824219,0 1.535157,0.167969 2.136719,0.503906 0.597656,0.332031 1.066406,0.824219 1.40625,1.476563 l -1.347656,0.820312 c -0.304688,-0.503906 -0.648438,-0.882812 -1.027344,-1.128906 -0.378906,-0.25 -0.808594,-0.375 -1.289062,-0.375 -0.609375,0 -1.109375,0.179687 -1.5,0.539062 -0.386719,0.359375 -0.582032,0.816407 -0.582032,1.371094 0,0.464844 0.148438,0.867188 0.449219,1.207031 0.296875,0.339844 0.761719,0.640625 1.390625,0.902344 z m 0,0"
         id="path138" />
    </g>
  </g>
</svg>
